<?xml version="1.0" encoding="UTF-8"?>
<svg id="Layer_1"
    xmlns="http://www.w3.org/2000/svg" version="1.1"
    xmlns:ev="http://www.w3.org/2001/xml-events" viewBox="0 0 307 600">
    <!-- Generator: Adobe Illustrator 29.5.1, SVG Export Plug-In . SVG Version: 2.1.0 Build 141)  -->
    <path d="M305.8 324.5 304.4 300.4 303.4 300.4 302.4 299.4 299.4 299.4 299.4 300.4 297.4 302.4 297.4 303.4 295.4 305.4 295.4 306.4 291.4 310.4 291.4 311.4 283.5 319.3 282.5 319.3 279.5 322.3 278.5 322.3 276.5 324.3 275.5 324.3 273.5 326.3 272.5 326.3 271.5 327.3 270.5 327.3 269.5 328.3 268.5 328.3 267.5 329.3 266.5 329.3 265.5 330.3 263.5 330.3 262.5 331.3 261.5 331.3 260.5 332.3 259.5 332.3 258.5 333.3 257.5 333.3 256.5 334.3 254.5 334.3 253.5 335.3 252.5 335.3 251.5 336.3 250.5 336.3 249.5 337.3 248.5 337.3 247.5 338.3 246.5 338.3 245.5 339.3 244.5 339.3 242.5 341.3 241.5 341.3 239.5 343.3 238.5 343.3 228.6 353.2 228.6 354.2 227.6 355.2 227.6 356.2 225.6 358.2 225.6 359.2 223.6 361.2 223.6 364.2 222.6 365.2 222.6 367.2 221.6 368.2 221.6 370.2 220.6 371.2 220.6 373.2 219.6 374.2 219.6 376.2 218.6 377.2 218.6 379.2 217.6 380.2 217.6 381.2 216.6 382.2 216.6 383.2 215.6 384.2 215.6 385.2 214.6 386.2 214.6 387.2 209.7 392.1 208.7 392.1 207.7 391.1 208.7 390.1 208.7 377.3 209.7 376.3 209.7 354.6 210.7 353.6 210.7 290.4 209.7 289.4 209.7 277.5 208.7 276.5 208.7 268.6 207.7 267.6 207.7 260.7 206.7 259.7 206.7 254.8 205.7 253.8 205.7 248.9 204.7 247.9 204.7 243.9 203.7 242.9 203.7 238.9 202.7 237.9 202.7 233.9 201.7 232.9 201.7 229.9 200.7 228.9 200.7 225.9 199.7 224.9 199.7 222.9 198.7 221.9 198.7 218.9 197.7 217.9 197.7 215.9 196.7 214.9 196.7 212.9 195.7 211.9 195.7 208.9 194.7 207.9 194.7 205.9 193.7 204.9 193.7 202.9 192.7 201.9 192.7 199.9 191.7 198.9 191.7 196.9 190.7 195.9 190.7 194.9 189.7 193.9 189.7 191.9 188.7 190.9 188.7 188.9 187.7 187.9 187.7 185.9 186.7 184.9 186.7 182.9 185.7 181.9 185.7 180.9 184.7 179.9 184.7 177.9 183.7 176.9 183.7 174.9 182.7 173.9 182.7 172.9 181.7 171.9 181.7 169.9 180.7 168.9 180.7 167.9 179.7 166.9 179.7 164.9 178.7 163.9 178.7 161.9 177.7 160.9 177.7 159.9 176.7 158.9 176.7 156.9 175.7 155.9 175.7 154.9 174.7 153.9 174.7 151.9 173.7 150.9 173.7 148.9 172.7 147.9 172.7 146.9 171.7 145.9 171.7 143.9 170.7 142.9 170.7 140.9 169.7 139.9 169.7 137.9 168.7 136.9 168.7 135.9 167.7 134.9 167.7 132.9 166.7 131.9 166.7 129.9 165.7 128.9 165.7 126.9 164.7 125.9 164.7 123.9 163.7 122.9 163.7 120.9 162.7 119.9 162.7 117.9 161.7 116.9 161.7 114.9 160.7 113.9 160.7 111.9 159.7 110.9 159.7 105 158.7 104 158.7 98.1 157.7 97.1 158.7 96.1 158.7 94.1 159.7 93.1 159.7 91.1 161.7 89.1 161.7 88.1 162.7 87.1 162.7 86.1 164.7 84.1 164.7 83.1 169.6 78.2 170.6 78.2 172.6 76.2 173.6 76.2 175.6 74.2 176.6 74.2 177.6 73.2 178.6 73.2 179.6 72.2 180.6 72.2 181.6 71.2 182.6 71.2 183.6 70.2 185.6 70.2 186.6 69.2 187.6 69.2 188.6 68.2 189.6 68.2 190.6 67.2 191.6 67.2 192.6 66.2 193.6 66.2 195.6 64.2 196.6 64.2 197.6 63.2 198.6 63.2 200.6 61.2 201.6 61.2 205.6 57.2 206.6 57.2 215.5 48.3 215.5 47.3 217.5 45.3 217.5 44.3 220.5 41.3 220.5 40.3 221.5 39.3 221.5 38.3 222.5 37.3 222.5 36.3 223.5 35.3 223.5 34.3 224.5 33.3 224.5 32.3 225.5 31.3 225.5 29.3 226.5 28.3 226.5 26.3 227.5 25.3 227.5 23.3 228.5 22.3 228.5 17.4 229.5 16.4 229.5 9.5 228.5 8.5 228.5 4.5 227.5 3.5 223.5 3.5 222.5 4.5 222.5 5.5 220.5 7.5 220.5 8.5 216.5 12.5 215.5 12.5 213.5 14.5 212.5 14.5 210.5 16.5 209.5 16.5 208.5 17.5 207.5 17.5 206.5 18.5 204.5 18.5 203.5 19.5 201.5 19.5 200.5 20.5 198.5 20.5 197.5 21.5 194.5 21.5 193.5 22.5 190.5 22.5 189.5 23.5 185.5 23.5 184.5 24.5 181.5 24.5 180.5 25.5 177.5 25.5 176.5 26.5 173.5 26.5 172.5 27.5 171.5 27.5 170.5 28.5 168.5 28.5 167.5 29.5 166.5 29.5 165.5 30.5 164.5 30.5 162.5 32.5 161.5 32.5 153.6 40.4 153.6 41.4 151.6 43.4 151.6 44.4 150.6 45.4 150.6 46.4 149.6 47.4 147.6 45.4 147.6 44.4 146.6 43.4 146.6 42.4 144.6 40.4 144.6 39.4 138.7 33.5 137.7 33.5 135.7 31.5 134.7 31.5 133.7 30.5 132.7 30.5 131.7 29.5 130.7 29.5 129.7 28.5 128.7 28.5 127.7 27.5 125.7 27.5 124.7 26.5 122.7 26.5 121.7 25.5 118.7 25.5 117.7 24.5 114.7 24.5 113.7 23.5 109.7 23.5 108.7 22.5 105.7 22.5 104.7 21.5 101.7 21.5 100.7 20.5 97.7 20.5 96.7 19.5 94.7 19.5 93.7 18.5 92.7 18.5 91.7 17.5 90.7 17.5 88.7 15.5 86.7 15.5 84.7 13.5 83.7 13.5 76.8 6.6 76.8 5.6 75.8 4.6 74.7 4.6 74.7 4.6 74.1 4.9 74.1 4.9 72.1 7.9 72.1 20.7 73.1 21.7 73.1 24.7 74.1 25.7 74.1 28.7 75.1 29.7 75.1 31.7 76.1 32.7 76.1 33.7 77.1 34.7 77.1 35.7 78.1 36.7 78.1 37.7 79.1 38.7 79.1 39.7 80.1 40.7 80.1 41.7 82.1 43.7 82.1 44.7 84.1 46.7 84.1 47.7 88.1 51.7 88.1 52.7 94 58.6 95 58.6 99 62.6 100 62.6 103 65.6 104 65.6 105 66.6 106 66.6 107 67.6 108 67.6 110 69.6 112 69.6 113 70.6 114 70.6 115 71.6 116 71.6 117 72.6 118 72.6 119 73.6 121 73.6 122 74.6 123 74.6 125 76.6 127 76.6 129 78.6 130 78.6 137.9 86.5 137.9 87.5 139.9 89.5 139.9 90.5 140.9 91.5 140.9 92.5 141.9 93.5 141.9 95.5 142.9 96.5 142.9 98.5 143.9 99.5 143.9 104.4 142.9 105.4 142.9 111.3 141.9 112.3 141.9 115.3 140.9 116.3 140.9 118.3 139.9 119.3 139.9 120.3 138.9 121.3 138.9 124.3 137.9 125.3 137.9 127.3 136.9 128.3 136.9 130.3 135.9 131.3 135.9 133.3 134.9 134.3 134.9 135.3 133.9 136.3 133.9 138.3 132.9 139.3 132.9 141.3 131.9 142.3 131.9 144.3 130.9 145.3 130.9 146.3 129.9 147.3 129.9 149.3 128.9 150.3 128.9 152.3 127.9 153.3 127.9 154.3 126.9 155.3 126.9 157.3 125.9 158.3 125.9 159.3 124.9 160.3 124.9 162.3 123.9 163.3 123.9 165.3 122.9 166.3 122.9 167.3 121.9 168.3 121.9 170.3 120.9 171.3 120.9 173.3 119.9 174.3 119.9 175.3 118.9 176.3 118.9 178.3 117.9 179.3 117.9 181.3 116.9 182.3 116.9 183.3 115.9 184.3 115.9 186.3 114.9 187.3 114.9 189.3 113.9 190.3 113.9 191.3 112.9 192.3 112.9 194.3 111.9 195.3 111.9 197.3 110.9 198.3 110.9 200.3 109.9 201.3 109.9 203.3 108.9 204.3 108.9 206.3 107.9 207.3 107.9 209.3 106.9 210.3 106.9 212.3 105.9 213.3 105.9 215.3 104.9 216.3 104.9 219.3 103.9 220.3 103.9 222.3 102.9 223.3 102.9 226.3 101.9 227.3 101.9 230.3 100.9 231.3 100.9 234.3 99.9 235.3 99.9 239.3 98.9 240.3 98.9 243.3 97.9 244.3 97.9 248.3 96.9 249.3 96.9 254.2 95.9 255.2 95.9 261.1 94.9 262.1 94.9 268 93.9 269 93.9 276.9 92.9 277.9 92.9 288.8 91.9 289.8 91.9 308.6 90.9 309.6 90.9 339.2 91.9 340.2 91.9 360 92.9 361 92.9 378.8 93.9 379.8 93.9 389.7 92.9 390.7 91.9 389.7 91.9 388.7 89.9 386.7 89.9 385.7 88.9 384.7 88.9 383.7 87.9 382.7 87.9 380.7 86.9 379.7 86.9 378.7 85.9 377.7 85.9 375.7 84.9 374.7 84.9 372.7 83.9 371.7 83.9 368.7 82.9 367.7 82.9 365.7 81.9 364.7 81.9 363.7 80.9 362.7 80.9 361.7 79.9 360.7 79.9 359.7 78.9 358.7 78.9 357.7 76.9 355.7 76.9 354.7 67 344.8 66 344.8 64 342.8 63 342.8 61 340.8 60 340.8 59 339.8 58 339.8 57 338.8 56 338.8 55 337.8 54 337.8 53 336.8 52 336.8 51 335.8 50 335.8 49 334.8 47 334.8 46 333.8 45 333.8 44 332.8 43 332.8 42 331.8 41 331.8 40 330.8 39 330.8 38 329.8 36 329.8 34 327.8 33 327.8 32 326.8 31 326.8 30 325.8 29 325.8 27 323.8 26 323.8 23 320.8 22 320.8 14.1 312.9 14.1 311.9 10.1 307.9 10.1 306.9 9.1 305.9 9.1 304.9 7.1 302.9 7.1 301.9 6.1 300.9 3.1 300.9 1.9 302.9 2.7 325.9 2.7 325.9 2.7 330.8 2.9 332 2.9 335 3.9 336 3.9 337 4.9 338 4.9 340 5.9 341 5.9 342 6.9 343 6.9 345 7.9 346 7.9 347 8.9 348 8.9 349 9.9 350 9.9 351 11.9 353 11.9 354 13.9 356 13.9 357 14.9 358 14.9 359 17.9 362 17.9 363 20.9 366 20.9 367 25.8 371.9 25.8 372.9 35.7 382.8 36.7 382.8 41.6 387.7 42.6 387.7 44.6 389.7 45.6 389.7 47.6 391.7 48.6 391.7 49.6 392.7 50.6 392.7 51.6 393.7 52.6 393.7 53.6 394.7 54.6 394.7 55.6 395.7 57.6 395.7 59.6 397.7 62.6 397.7 63.6 398.7 65.6 398.7 66.6 399.7 68.6 399.7 69.6 400.7 70.6 400.7 71.6 401.7 73.6 401.7 74.6 402.7 76.6 402.7 77.6 403.7 78.6 403.7 79.6 404.7 81.6 404.7 82.6 405.7 83.6 405.7 84.6 406.7 85.6 406.7 86.6 407.7 87.6 407.7 88.6 408.7 89.6 408.7 90.6 409.7 91.6 409.7 93.6 411.7 94.6 411.7 96.6 413.7 96.6 415.7 97.6 416.7 97.6 422.6 98.6 423.6 98.6 428.5 99.6 429.5 99.6 434.4 100.6 435.4 100.6 437.4 101.6 438.4 101.6 441.4 102.6 442.4 99.6 445.4 99.6 452.3 100.6 453.3 100.6 466.1 101.6 467.1 101.6 495.8 102.6 496.8 102.6 504.7 103.6 505.7 103.6 513.6 104.6 514.6 104.6 521.5 105.6 522.5 105.6 529.4 106.6 530.4 106.6 534.4 107.6 535.4 107.6 539.4 108.6 540.4 108.6 544.4 109.6 545.4 109.6 547.4 110.6 548.4 110.6 550.4 111.6 551.4 111.6 552.4 112.6 553.4 112.6 554.4 113.6 555.4 113.6 556.4 114.6 557.4 114.6 558.4 116.6 560.4 116.6 561.4 117.6 562.4 117.6 563.4 119.6 565.4 119.6 566.4 121.6 568.4 121.6 569.4 123.6 571.4 123.6 573.4 125.6 575.4 125.6 576.4 126.6 577.4 126.6 578.4 127.6 579.4 127.6 580.4 129.6 582.4 129.6 583.4 132.6 586.4 132.6 587.4 137.5 592.3 137.5 593.3 138.5 593.3 143.6 596.9 158.1 596.9 160.1 596.9 161.1 595.9 162.1 595.9 170 588 170 587 171 586 171 585 174 582 174 581 176 579 176 578 178 576 178 575 180 573 180 571 183 568 183 567 184 566 184 565 185 564 185 563 186 562 186 561 187 560 187 559 189 557 189 556 190 555 190 553 191 552 191 551 192 550 192 549 193 548 193 546 194 545 194 542 195 541 195 538 196 537 196 536 197 535 197 532 198 531 198 528 199 527 199 522.1 200 521.1 200 512.2 201 511.2 201 501.3 202 500.3 202 489.4 203 488.4 203 457.8 204 456.8 204 444 202 442 202 441 203 440 203 437 204 436 204 433 205 432 205 428 206 427 206 421.1 207 420.1 207 415.2 210 412.2 211 412.2 213 410.2 214 410.2 216 408.2 217 408.2 218 407.2 219 407.2 220 406.2 221 406.2 222 405.2 223 405.2 224 404.2 225 404.2 226 403.2 228 403.2 229 402.2 230 402.2 231 401.2 233 401.2 234 400.2 236 400.2 237 399.2 239 399.2 240 398.2 241 398.2 242 397.2 244 397.2 245 396.2 247 396.2 248 395.2 250 395.2 251 394.2 252 394.2 253 393.2 254 393.2 255 392.2 256 392.2 257 391.2 258 391.2 259 390.2 260 390.2 262 388.2 263 388.2 265 386.2 266 386.2 270 382.2 271 382.2 281.9 371.3 281.9 370.3 286.8 365.4 286.8 364.4 290.8 360.4 290.8 359.4 292.8 357.4 292.8 356.4 294.8 354.4 294.8 353.4 296.8 351.4 296.8 350.4 297.8 349.4 297.8 348.4 298.8 347.4 298.8 346.4 299.8 345.4 299.8 344.4 300.8 343.4 300.8 342.4 301.8 341.4 301.8 339.4 302.8 338.4 302.8 337.4 303.8 336.4 303.8 334.4 304.8 333.4 304.8 331.4 305.8 330.4 305.8 324.5Z" fill="none" stroke="#000"/>
</svg>