<?xml version="1.0" encoding="UTF-8"?>
<svg id="Layer_1"
    xmlns="http://www.w3.org/2000/svg" baseProfile="tiny" version="1.2"
    xmlns:x="http://ns.adobe.com/Extensibility/1.0/" viewBox="0,0,1000,382.3">
    <!-- Generator: Adobe Illustrator 29.5.1  SVG Export Plug-In . SVG Version: 2.1.0 Build 141)  -->
    <path d="M471.4,6.9,471.4,6.9,521.8,115.3,523.3,118.4,524.7,121.3,526.1,124,526.8,125.3,527.5,126.6,528.2,127.9,529,129.2,529.7,130.4,530.4,131.7,532,134.3,534.2,134.3,534.2,130.9,541.8,130.2,548.2,129.7,550.9,129.6,553.4,129.4,555.6,129.3,557.6,129.3,559.3,129.3,560.1,129.3,560.9,129.3,561.6,129.3,562.2,129.3,562.9,129.3,563.4,129.4,564,129.4,564.5,129.4,565,129.5,565.4,129.5,565.8,129.6,566.2,129.6,566.6,129.7,567,129.7,567.3,129.8,567.6,129.8,567.9,129.9,568.2,129.9,568.4,130,568.6,130,568.7,130,568.8,130.1,568.9,130.1,569,130.1,569.1,130.2,569.2,130.2,569.3,130.2,569.4,130.3,569.5,130.3,569.6,130.3,569.7,130.3,569.7,130.4,569.8,130.4,569.8,130.4,569.9,130.4,569.9,130.4,569.9,130.5,570,130.5,570,130.5,570,130.5,570.1,130.5,570.1,130.5,570.1,130.6,570.2,130.6,570.2,130.6,570.2,130.6,570.2,130.6,570.3,130.6,570.3,130.7,570.3,130.7,570.3,130.7,570.4,130.7,570.4,130.7,570.4,130.7,570.4,130.8,570.5,130.8,570.5,130.8,570.5,130.8,570.5,130.8,570.6,130.8,570.6,130.9,570.6,130.9,570.6,130.9,570.6,130.9,570.6,130.9,570.7,130.9,570.7,131,570.7,131,570.7,131,570.7,131,570.7,131,570.8,131.1,570.8,131.1,570.8,131.1,570.8,131.1,570.8,131.1,570.8,131.2,570.8,131.2,570.8,131.2,570.9,131.2,570.9,131.2,570.9,131.2,570.9,131.3,570.9,131.3,570.9,131.3,570.9,131.3,570.9,131.3,570.9,131.4,570.9,131.4,571,131.4,571,131.4,571,131.4,571,131.5,571,131.5,571,131.5,571,131.5,571,131.6,571,131.6,571,131.6,571,131.6,571,131.6,571,131.7,571,131.7,571,131.7,571.1,131.8,571.1,131.8,571.1,131.9,571.1,132,571.1,132.1,571.1,132.2,571.1,132.3,571.1,132.4,571.2,132.5,571.2,132.6,571.2,132.8,571.2,132.9,571.2,133.1,571.2,133.4,571.2,133.8,571.2,134.2,571.2,140.5,571.2,146.8,571.2,147.3,571.2,147.6,571.2,148,571.2,148.1,571.2,148.2,571.2,148.4,571.2,148.5,571.1,148.6,571.1,148.7,571.1,148.8,571.1,148.9,571.1,149,571.1,149.1,571.1,149.2,571.1,149.2,571,149.3,571,149.3,571,149.4,571,149.4,571,149.4,571,149.4,571,149.4,571,149.5,571,149.5,571,149.5,571,149.5,571,149.5,571,149.6,571,149.6,571,149.6,570.9,149.6,570.9,149.6,570.9,149.7,570.9,149.7,570.9,149.7,570.9,149.7,570.9,149.7,570.9,149.8,570.9,149.8,570.9,149.8,570.8,149.8,570.8,149.8,570.8,149.9,570.8,149.9,570.8,149.9,570.8,149.9,570.8,149.9,570.8,150,570.7,150,570.7,150,570.7,150,570.7,150,570.7,150,570.7,150.1,570.6,150.1,570.6,150.1,570.6,150.1,570.6,150.1,570.6,150.2,570.6,150.2,570.5,150.2,570.5,150.2,570.5,150.2,570.5,150.2,570.4,150.3,570.4,150.3,570.4,150.3,570.4,150.3,570.3,150.3,570.3,150.3,570.3,150.4,570.3,150.4,570.2,150.4,570.2,150.4,570.2,150.4,570.2,150.4,570.1,150.5,570.1,150.5,570.1,150.5,570,150.5,570,150.5,570,150.5,569.9,150.6,569.9,150.6,569.9,150.6,569.8,150.6,569.8,150.6,569.7,150.6,569.7,150.7,569.6,150.7,569.5,150.7,569.4,150.8,569.3,150.8,569.2,150.8,569.1,150.8,569,150.9,568.9,150.9,568.8,150.9,568.7,151,568.6,151,568.4,151,568.2,151.1,567.9,151.1,567.6,151.2,567.3,151.2,567,151.3,566.7,151.3,566.4,151.4,566,151.4,565.7,151.5,565.3,151.5,565,151.5,564.6,151.6,564.1,151.6,563.7,151.6,563.2,151.7,562.7,151.7,562.2,151.7,561,151.7,559.7,151.7,558.3,151.7,556.8,151.7,555,151.6,553.1,151.6,551.1,151.5,548.8,151.3,543.7,151,546.9,155.1,550.7,159.8,555,165.1,560,171,617.6,171,629.5,171.1,634.9,171.2,639.9,171.4,642.3,171.6,644.7,171.7,647,171.9,649.4,172.1,651.7,172.3,654.1,172.6,656.4,172.9,658.7,173.2,661,173.5,663.3,173.8,667.8,174.5,672.1,175.3,676.4,176.2,680.4,177,684.3,177.9,687.9,178.8,691.4,179.7,693,180.1,694.6,180.6,696.1,181,697.6,181.5,699,181.9,700.3,182.4,701.6,182.8,702.8,183.3,704,183.7,704.5,183.9,705.1,184.2,705.6,184.4,706.1,184.6,706.6,184.8,707.1,185.1,707.6,185.3,708.1,185.5,708.5,185.7,708.9,186,709.3,186.2,709.7,186.4,710.1,186.6,710.5,186.9,710.9,187.1,711,187.2,711.2,187.3,711.4,187.4,711.5,187.5,711.7,187.6,711.8,187.7,712,187.8,712.1,187.9,712.3,188,712.4,188.2,712.5,188.3,712.7,188.4,712.8,188.5,712.9,188.6,713,188.7,713.1,188.8,713.3,188.9,713.4,189,713.5,189.1,713.6,189.2,713.7,189.3,713.8,189.4,713.8,189.4,713.8,189.5,713.9,189.5,713.9,189.6,714,189.6,714,189.7,714,189.7,714.1,189.8,714.1,189.8,714.2,189.9,714.2,189.9,714.2,190,714.3,190,714.3,190.1,714.3,190.1,714.4,190.2,714.4,190.2,714.4,190.3,714.4,190.3,714.5,190.4,714.5,190.4,714.5,190.5,714.5,190.5,714.6,190.5,714.6,190.6,714.6,190.6,714.6,190.7,714.6,190.7,714.7,190.8,714.7,190.8,714.7,190.9,714.7,190.9,714.7,190.9,714.7,190.9,714.7,191,714.7,191,714.7,191,714.8,191,714.8,191,714.8,191.1,714.8,191.1,714.8,191.1,714.8,191.1,714.8,191.1,714.8,191.2,714.8,191.2,714.8,191.2,714.8,191.2,714.8,191.3,714.8,191.3,714.8,191.3,714.8,191.3,714.8,191.3,714.8,191.4,714.8,191.4,714.8,191.4,714.8,191.4,714.8,191.4,714.8,191.5,714.8,191.5,714.8,191.5,714.8,191.5,714.8,191.5,714.8,191.6,714.8,191.6,714.8,191.6,714.8,191.6,714.8,191.6,714.8,191.7,714.8,191.7,714.8,191.7,714.8,191.7,714.8,191.8,714.8,191.8,714.8,191.8,714.8,191.8,714.8,191.8,714.8,191.9,714.8,191.9,714.8,191.9,714.8,191.9,714.8,191.9,714.8,192,714.8,192,714.8,192,714.8,192,714.8,192,714.8,192.1,714.8,192.1,714.8,192.1,714.8,192.1,714.8,192.2,714.7,192.2,714.7,192.2,714.7,192.2,714.7,192.2,714.7,192.3,714.7,192.3,714.7,192.3,714.7,192.4,714.7,192.4,714.6,192.4,714.6,192.5,714.6,192.5,714.6,192.6,714.6,192.6,714.5,192.7,714.5,192.7,714.5,192.8,714.5,192.8,714.4,192.9,714.4,192.9,714.4,192.9,714.4,193,714.3,193,714.3,193.1,714.3,193.1,714.2,193.2,714.2,193.2,714.2,193.3,714.1,193.3,714.1,193.4,714,193.4,714,193.5,714,193.5,713.9,193.6,713.9,193.6,713.8,193.7,713.8,193.7,713.8,193.8,713.7,193.9,713.6,194,713.5,194.1,713.4,194.2,713.3,194.3,713.1,194.4,713,194.5,712.9,194.6,712.8,194.7,712.7,194.8,712.5,194.9,712.4,195,712.3,195.1,712.1,195.2,712,195.3,711.8,195.4,711.7,195.6,711.5,195.7,711.4,195.8,711.2,195.9,711,196,710.9,196.1,710.5,196.3,710.1,196.5,709.7,196.8,709.3,197,708.9,197.2,708.5,197.4,708.1,197.7,707.6,197.9,707.1,198.1,706.6,198.3,706.1,198.6,705.6,198.8,705.1,199,704.5,199.2,704,199.5,702.8,199.9,701.6,200.4,700.3,200.8,699,201.3,697.6,201.7,696.1,202.2,694.6,202.6,693,203.1,691.4,203.5,687.9,204.4,684.3,205.3,680.4,206.2,676.4,207,672.1,207.8,667.8,208.6,663.3,209.4,661,209.7,658.7,210,656.4,210.3,654.1,210.6,651.7,210.8,649.4,211.1,647,211.3,644.7,211.4,642.3,211.6,639.9,211.7,634.9,211.9,629.5,212.1,617.6,212.2,560,212.2,555,218.1,550.7,223.4,546.9,228,543.7,232.2,548.8,231.8,551.1,231.7,553.1,231.6,555,231.5,556.8,231.5,558.3,231.4,559.7,231.4,561,231.4,562.2,231.5,562.7,231.5,563.2,231.5,563.7,231.5,564.1,231.6,564.6,231.6,565,231.6,565.3,231.7,565.7,231.7,566,231.8,566.4,231.8,566.7,231.8,567,231.9,567.3,231.9,567.6,232,567.9,232,568.2,232.1,568.4,232.2,568.6,232.2,568.7,232.2,568.8,232.2,568.9,232.3,569,232.3,569.1,232.3,569.2,232.4,569.3,232.4,569.4,232.4,569.5,232.4,569.6,232.5,569.7,232.5,569.7,232.5,569.8,232.6,569.8,232.6,569.9,232.6,569.9,232.6,569.9,232.6,570,232.6,570,232.7,570,232.7,570.1,232.7,570.1,232.7,570.1,232.7,570.2,232.7,570.2,232.7,570.2,232.8,570.2,232.8,570.3,232.8,570.3,232.8,570.3,232.8,570.3,232.8,570.4,232.9,570.4,232.9,570.4,232.9,570.4,232.9,570.5,232.9,570.5,233,570.5,233,570.5,233,570.6,233,570.6,233,570.6,233,570.6,233.1,570.6,233.1,570.6,233.1,570.7,233.1,570.7,233.1,570.7,233.1,570.7,233.2,570.7,233.2,570.7,233.2,570.8,233.2,570.8,233.2,570.8,233.3,570.8,233.3,570.8,233.3,570.8,233.3,570.8,233.3,570.8,233.4,570.9,233.4,570.9,233.4,570.9,233.4,570.9,233.4,570.9,233.5,570.9,233.5,570.9,233.5,570.9,233.5,570.9,233.5,570.9,233.6,571,233.6,571,233.6,571,233.6,571,233.6,571,233.7,571,233.7,571,233.7,571,233.7,571,233.7,571,233.8,571,233.8,571,233.8,571,233.8,571,233.9,571,233.9,571.1,234,571.1,234,571.1,234.1,571.1,234.2,571.1,234.3,571.1,234.4,571.1,234.5,571.1,234.6,571.2,234.7,571.2,234.8,571.2,234.9,571.2,235.1,571.2,235.2,571.2,235.5,571.2,235.9,571.2,236.3,571.2,242.7,571.2,249,571.2,249.4,571.2,249.8,571.2,250.1,571.2,250.3,571.2,250.4,571.2,250.5,571.2,250.6,571.1,250.8,571.1,250.9,571.1,251,571.1,251.1,571.1,251.2,571.1,251.3,571.1,251.3,571.1,251.4,571,251.4,571,251.5,571,251.5,571,251.5,571,251.6,571,251.6,571,251.6,571,251.6,571,251.6,571,251.7,571,251.7,571,251.7,571,251.7,571,251.7,571,251.8,570.9,251.8,570.9,251.8,570.9,251.8,570.9,251.8,570.9,251.9,570.9,251.9,570.9,251.9,570.9,251.9,570.9,251.9,570.9,252,570.8,252,570.8,252,570.8,252,570.8,252,570.8,252.1,570.8,252.1,570.8,252.1,570.8,252.1,570.7,252.1,570.7,252.2,570.7,252.2,570.7,252.2,570.7,252.2,570.7,252.2,570.6,252.2,570.6,252.3,570.6,252.3,570.6,252.3,570.6,252.3,570.6,252.3,570.5,252.3,570.5,252.4,570.5,252.4,570.5,252.4,570.4,252.4,570.4,252.4,570.4,252.5,570.4,252.5,570.3,252.5,570.3,252.5,570.3,252.5,570.3,252.5,570.2,252.6,570.2,252.6,570.2,252.6,570.2,252.6,570.1,252.6,570.1,252.6,570.1,252.7,570,252.7,570,252.7,570,252.7,569.9,252.7,569.9,252.7,569.9,252.7,569.8,252.8,569.8,252.8,569.7,252.8,569.7,252.8,569.6,252.9,569.5,252.9,569.4,252.9,569.3,252.9,569.2,253,569.1,253,569,253,568.9,253.1,568.8,253.1,568.7,253.1,568.6,253.2,568.4,253.2,568.2,253.2,567.9,253.3,567.6,253.3,567.3,253.4,567,253.4,566.6,253.5,566.2,253.5,565.8,253.6,565.4,253.6,565,253.7,564.5,253.7,564,253.8,563.4,253.8,562.9,253.8,562.2,253.9,561.6,253.9,560.9,253.9,560.1,253.9,559.3,253.9,557.6,253.9,555.6,253.8,553.4,253.7,550.9,253.6,548.2,253.5,541.8,253,534.2,252.3,534.2,248.9,532,248.9,530.4,251.5,529.7,252.7,529,254,528.2,255.3,527.5,256.5,526.8,257.8,526.1,259.1,524.7,261.9,523.3,264.8,521.8,267.9,471.4,376.3,471.4,376.3,471.4,376.3,471.3,376.3,471.3,376.4,471.3,376.4,471.3,376.4,471.3,376.5,471.3,376.5,471.2,376.5,471.2,376.6,471.2,376.6,471.2,376.6,471.2,376.7,471.1,376.7,471.1,376.7,471.1,376.8,471.1,376.8,471.1,376.8,471,376.9,471,376.9,471,376.9,471,376.9,470.9,377,470.9,377,470.9,377,470.9,377.1,470.8,377.1,470.8,377.1,470.8,377.2,470.8,377.2,470.7,377.2,470.7,377.2,470.7,377.3,470.7,377.3,470.6,377.3,470.6,377.3,470.6,377.4,470.6,377.4,470.5,377.4,470.5,377.4,470.5,377.5,470.4,377.5,470.4,377.5,470.4,377.5,470.4,377.6,470.3,377.6,470.3,377.6,470.3,377.6,470.2,377.7,470.2,377.7,470.2,377.7,470.2,377.7,470.1,377.8,470.1,377.8,470.1,377.8,470,377.8,470,377.8,470,377.9,469.9,377.9,469.9,377.9,469.9,377.9,469.8,377.9,469.8,378,469.8,378,469.7,378,469.7,378,469.6,378,469.6,378,469.6,378.1,469.5,378.1,469.5,378.1,469.5,378.1,469.4,378.1,469.4,378.1,469.4,378.2,469.3,378.2,469.3,378.2,469.2,378.2,469.2,378.2,469.1,378.3,469,378.3,468.9,378.3,468.8,378.3,468.8,378.4,468.7,378.4,468.6,378.4,468.5,378.4,468.4,378.4,468.3,378.5,468.2,378.5,468.1,378.5,468,378.5,467.9,378.5,467.8,378.5,467.8,378.5,467.7,378.6,467.6,378.6,467.5,378.6,467.4,378.6,467.3,378.6,467.1,378.6,467,378.6,466.9,378.6,466.8,378.6,449.2,378.6,449.2,378.5,449.3,378.5,449.3,378.5,449.3,378.5,449.3,378.4,449.3,378.4,449.3,378.4,449.3,378.4,449.3,378.3,449.3,378.3,449.4,378.3,449.4,378.3,449.4,378.2,449.4,378.2,449.4,378.2,449.4,378.2,449.4,378.1,449.4,378.1,449.5,378.1,449.5,378.1,449.5,378.1,449.5,378,449.5,378,449.5,378,449.5,378,449.6,378,449.6,378,449.6,377.9,449.6,377.9,449.6,377.9,449.6,377.9,449.6,377.9,449.6,377.9,449.7,377.8,449.7,377.8,449.7,377.8,449.7,377.8,449.7,377.8,449.7,377.8,449.7,377.8,449.8,377.7,449.8,377.7,449.8,377.7,449.8,377.7,449.8,377.7,449.8,377.7,449.9,377.7,449.9,377.7,449.9,377.6,449.9,377.6,449.9,377.6,449.9,377.6,449.9,377.6,450,377.6,450,377.6,450,377.6,450,377.6,450,377.6,450,377.6,450.1,377.5,450.1,377.5,450.1,377.5,450.1,377.5,450.1,377.5,450.1,377.5,450.1,377.5,450.2,377.5,450.2,377.5,450.2,377.5,450.2,377.5,450.2,377.5,450.2,377.5,450.3,377.5,450.3,377.5,450.3,377.5,450.3,377.4,450.3,377.4,450.3,377.4,450.4,377.4,450.4,377.4,450.4,377.4,450.4,377.4,450.4,377.4,450.4,377.4,450.5,377.4,450.5,377.4,450.5,377.4,450.6,377.4,450.6,377.4,450.6,377.4,450.7,377.4,450.7,377.4,450.7,377.4,450.8,377.4,450.8,377.4,450.8,377.4,450.9,377.4,451,377.4,451.8,377.4,452,377.4,452.3,377.4,452.6,377.3,452.8,377.3,452.9,377.3,453.1,377.3,453.3,377.3,453.4,377.3,453.7,377.3,453.8,377.3,453.9,377.2,453.9,377.2,454,377.2,454,377.2,454.1,377.2,454.1,377.2,454.1,377.2,454.2,377.2,454.2,377.2,454.3,377.2,454.3,377.2,454.4,377.1,454.4,377.1,454.4,377.1,454.5,377.1,454.5,377.1,454.5,377.1,454.5,377.1,454.6,377.1,454.6,377.1,454.6,377.1,454.6,377.1,454.6,377,454.7,377,454.7,377,454.7,377,454.7,377,454.8,377,454.8,377,454.8,377,454.8,377,454.8,377,454.9,376.9,454.9,376.9,454.9,376.9,454.9,376.9,455,376.9,455,376.9,455,376.9,455,376.8,455,376.8,455.1,376.8,455.1,376.8,455.1,376.8,455.1,376.8,455.1,376.8,455.2,376.7,455.2,376.7,455.2,376.7,455.2,376.7,455.2,376.7,455.3,376.6,455.3,376.6,455.3,376.6,455.3,376.6,455.3,376.6,455.4,376.5,455.4,376.5,455.4,376.5,455.4,376.5,455.4,376.5,455.5,376.4,455.5,376.4,455.5,376.4,455.5,376.4,455.5,376.3,455.6,376.3,455.6,376.3,455.6,376.3,455.6,376.2,455.6,376.2,455.6,376.2,455.7,376.1,455.7,376.1,455.7,376.1,455.7,376.1,455.7,376,455.7,376,455.8,376,455.8,375.9,455.8,375.9,455.8,375.9,455.8,375.8,455.8,375.8,455.9,375.8,455.9,375.7,455.9,375.7,455.9,375.7,455.9,375.6,455.9,375.6,455.9,375.5,456,375.5,456,375.5,456,375.4,456,375.4,456,375.3,456,375.3,456,375.3,456,375.2,456.1,375.1,456.1,375,456.1,374.9,474.4,293,474,293,473.7,292.9,473.3,292.9,472.9,292.9,472.6,292.9,472.2,292.8,471.9,292.8,471.5,292.8,471.2,292.7,470.8,292.7,470.5,292.6,470.2,292.6,469.8,292.5,469.5,292.5,469.2,292.4,468.9,292.3,468.6,292.3,468.3,292.2,468,292.1,467.7,292,467.4,291.9,467.1,291.9,466.8,291.8,466.5,291.7,466.2,291.6,465.9,291.5,465.7,291.4,465.4,291.3,465.2,291.1,465,291.1,464.9,291,464.8,291,464.6,290.9,464.5,290.8,464.4,290.8,464.5,290.7,464.6,290.6,464.8,290.6,464.9,290.5,465,290.5,465.2,290.4,465.3,290.3,465.5,290.3,465.6,290.2,465.7,290.2,465.9,290.1,466,290.1,466.2,290,466.3,290,466.6,289.9,466.9,289.8,467.2,289.7,467.5,289.6,467.9,289.5,468.2,289.4,468.5,289.3,468.9,289.2,469.2,289.2,469.5,289.1,469.9,289,470.3,289,470.6,288.9,471,288.9,471.4,288.8,471.7,288.8,472.1,288.7,472.5,288.7,472.9,288.7,473.3,288.7,473.7,288.6,474.1,288.6,474.5,288.6,475,288.6,475.4,288.6,482.1,258.4,481.8,258.4,481.4,258.3,481,258.3,480.6,258.3,480.2,258.3,479.8,258.2,479.5,258.2,479.1,258.2,478.7,258.1,478.4,258.1,478,258,477.7,258,477.3,257.9,477,257.9,476.7,257.8,476.3,257.7,476,257.7,475.7,257.6,475.4,257.5,475.1,257.4,474.8,257.4,474.5,257.3,474.2,257.2,473.9,257.1,473.6,257,473.3,256.9,473,256.8,472.9,256.7,472.7,256.6,472.6,256.6,472.5,256.5,472.3,256.5,472.2,256.4,472.1,256.3,471.9,256.3,471.8,256.2,471.7,256.1,471.8,256.1,471.9,256,472.1,256,472.2,255.9,472.3,255.8,472.5,255.8,472.6,255.7,472.8,255.6,472.9,255.6,473.1,255.5,473.2,255.5,473.4,255.4,473.5,255.4,473.7,255.3,473.8,255.3,474,255.2,474.3,255.1,474.6,255,474.9,254.9,475.3,254.8,475.6,254.7,475.9,254.7,476.3,254.6,476.6,254.5,477,254.4,477.4,254.4,477.8,254.3,478.1,254.3,478.5,254.2,478.9,254.2,479.3,254.1,479.7,254.1,480.1,254.1,480.5,254,480.9,254,481.4,254,481.8,254,482.2,253.9,482.7,253.9,483.1,253.9,485,245.7,485,241.7,484.6,241.7,484.1,241.7,483.7,241.7,483.3,241.7,482.9,241.7,482.5,241.6,482.1,241.6,481.7,241.6,481.4,241.5,481,241.5,480.6,241.5,480.2,241.4,479.9,241.3,479.5,241.3,479.2,241.2,478.8,241.2,478.5,241.1,478.1,241,477.8,240.9,477.5,240.8,477.1,240.8,476.8,240.7,476.5,240.6,476.2,240.5,475.9,240.4,475.7,240.3,475.6,240.3,475.4,240.2,475.3,240.1,475.1,240.1,475,240,474.9,240,474.7,239.9,474.6,239.8,474.4,239.8,474.3,239.7,474.2,239.6,474,239.6,473.9,239.5,474,239.4,474.2,239.4,474.3,239.3,474.4,239.2,474.6,239.2,474.7,239.1,474.9,239.1,475,239,475.1,238.9,475.3,238.9,475.4,238.8,475.6,238.8,475.7,238.7,475.9,238.7,476.2,238.5,476.5,238.4,476.8,238.3,477.1,238.3,477.5,238.2,477.8,238.1,478.1,238,478.5,237.9,478.8,237.9,479.2,237.8,479.5,237.7,479.9,237.7,480.2,237.6,480.6,237.6,481,237.5,481.4,237.5,481.7,237.4,482.1,237.4,482.5,237.4,482.9,237.3,483.3,237.3,483.7,237.3,484.1,237.3,484.6,237.3,485,237.3,485,212.2,407.9,212.1,402.1,212,399.4,211.9,396.8,211.8,394.3,211.6,391.8,211.4,389.3,211.2,386.8,211,384.4,210.7,381.8,210.4,380,210.2,378.1,209.9,376.1,209.6,374.1,209.2,369.6,208.4,364.4,207.4,351.7,204.8,334.4,201,298,267.3,297.9,267.4,297.9,267.4,297.9,267.4,297.9,267.5,297.9,267.5,297.9,267.5,297.8,267.5,297.8,267.6,297.8,267.6,297.8,267.6,297.8,267.6,297.7,267.7,297.7,267.7,297.7,267.7,297.7,267.7,297.6,267.8,297.6,267.8,297.6,267.8,297.6,267.8,297.6,267.8,297.5,267.9,297.5,267.9,297.5,267.9,297.5,267.9,297.4,267.9,297.4,268,297.4,268,297.4,268,297.3,268,297.3,268,297.3,268.1,297.2,268.1,297.2,268.1,297.2,268.1,297.2,268.1,297.1,268.1,297.1,268.1,297.1,268.2,297,268.2,297,268.2,297,268.2,296.9,268.2,296.9,268.2,296.9,268.2,296.9,268.2,296.8,268.2,296.8,268.3,296.8,268.3,296.7,268.3,296.7,268.3,296.7,268.3,296.6,268.3,296.6,268.3,296.6,268.3,296.5,268.3,296.5,268.3,296.5,268.3,296.4,268.3,296.4,268.3,296.4,268.3,296.4,268.3,296.3,268.3,284.6,268.3,299.3,193.2,295.3,192.3,294.6,192.3,294.2,192.2,294,192.2,293.8,192.2,293.8,192.2,293.7,192.2,293.7,192.2,293.6,192.2,293.6,192.2,293.5,192.2,293.5,192.1,293.5,192.1,293.5,192.1,293.4,192.1,293.4,192.1,293.4,192.1,293.4,192.1,293.4,192.1,293.3,192.1,293.3,192.1,293.3,192.1,293.3,192.1,293.3,192.1,293.3,192.1,293.3,192.1,293.3,192.1,293.3,192.1,293.3,192.1,293.3,192.1,293.2,192.1,293.2,192.1,293.2,192.1,293.2,192.1,293.2,192.1,293.2,192,293.2,192,293.2,192,293.2,192,293.2,192,293.2,192,293.2,192,293.2,192,293.1,192,293.1,192,293.1,192,293.1,192,293.1,192,293.1,192,293.1,192,293.1,192,293.1,192,293.1,192,293.1,192,293.1,192,293.1,192,293.1,192,293.1,192,293.1,192,293.1,192,293.1,192,293.1,192,293.1,192,293.1,192,293.1,192,293.1,192,293.1,192,293.1,191.9,293.1,191.9,293.1,191.9,293.1,191.9,293.1,191.9,293.1,191.9,293.1,191.9,293.1,191.9,293.1,191.9,293.1,191.9,293.1,191.9,293.1,191.9,293,191.9,293,191.9,293,191.9,293,191.9,293,191.9,293,191.9,293,191.9,293,191.9,293,191.9,293,191.9,293,191.9,293,191.9,293,191.9,293,191.9,293,191.9,293,191.9,293,191.9,293,191.9,293,191.9,293,191.9,293,191.8,293,191.8,293,191.8,293,191.8,293,191.8,293,191.8,293,191.8,293,191.8,293,191.8,293,191.8,293,191.8,293,191.8,293,191.8,293,191.8,293,191.8,293,191.8,293,191.8,293,191.7,293,191.7,293,191.7,293,191.7,293,191.7,293,191.7,293,191.7,293,191.7,293,191.7,293,191.7,293,191.7,293,191.6,293,191.6,293,191.6,293,191.6,293,191.6,293,191.6,293,191.5,293,191.5,293,191.5,293,191.5,293,191.5,293,191.5,293,191.5,293,191.5,293,191.5,293,191.5,293,191.5,293,191.4,293,191.4,293,191.4,293,191.4,293,191.4,293,191.4,293,191.4,293,191.4,293,191.4,293,191.4,293,191.4,293,191.4,293,191.3,293,191.3,293,191.3,293,191.3,293,191.3,293,191.3,293,191.3,293,191.3,293,191.3,293,191.3,293,191.3,293,191.3,293,191.3,293,191.3,293,191.3,293,191.3,293,191.3,293,191.3,293,191.3,293,191.3,293,191.3,293,191.3,293,191.3,293,191.3,293,191.3,293,191.3,293,191.3,293,191.3,293.1,191.3,293.1,191.3,293.1,191.2,293.1,191.2,293.1,191.2,293.1,191.2,293.1,191.2,293.1,191.2,293.1,191.2,293.1,191.2,293.1,191.2,293.1,191.2,293.1,191.2,293.1,191.2,293.1,191.2,293.1,191.2,293.1,191.2,293.1,191.2,293.1,191.2,293.1,191.2,293.1,191.2,293.1,191.2,293.1,191.2,293.1,191.2,293.1,191.2,293.1,191.2,293.1,191.2,293.1,191.2,293.1,191.2,293.1,191.2,293.1,191.2,293.1,191.2,293.1,191.2,293.1,191.2,293.1,191.2,293.1,191.2,293.2,191.2,293.2,191.2,293.2,191.1,293.2,191.1,293.2,191.1,293.2,191.1,293.2,191.1,293.2,191.1,293.2,191.1,293.2,191.1,293.2,191.1,293.2,191.1,293.2,191.1,293.3,191.1,293.3,191.1,293.3,191.1,293.3,191.1,293.3,191.1,293.3,191.1,293.3,191.1,293.3,191.1,293.3,191.1,293.3,191.1,293.3,191.1,293.4,191.1,293.4,191.1,293.4,191.1,293.4,191,293.4,191,293.5,191,293.5,191,293.5,191,293.5,191,293.6,191,293.6,191,293.7,191,293.7,191,293.8,191,293.8,191,294,191,294.2,190.9,294.6,190.9,295.3,190.9,299.3,190,284.6,114.9,296.3,114.9,296.4,114.9,296.4,114.9,296.4,114.9,296.4,114.9,296.5,114.9,296.5,114.9,296.5,114.9,296.6,114.9,296.6,114.9,296.6,114.9,296.7,114.9,296.7,114.9,296.7,114.9,296.8,114.9,296.8,114.9,296.8,114.9,296.9,114.9,296.9,114.9,296.9,115,296.9,115,297,115,297,115,297,115,297.1,115,297.1,115,297.1,115,297.2,115.1,297.2,115.1,297.2,115.1,297.2,115.1,297.3,115.1,297.3,115.1,297.3,115.2,297.4,115.2,297.4,115.2,297.4,115.2,297.4,115.2,297.5,115.2,297.5,115.3,297.5,115.3,297.5,115.3,297.6,115.3,297.6,115.3,297.6,115.4,297.6,115.4,297.6,115.4,297.7,115.4,297.7,115.5,297.7,115.5,297.7,115.5,297.8,115.5,297.8,115.6,297.8,115.6,297.8,115.6,297.8,115.6,297.9,115.7,297.9,115.7,297.9,115.7,297.9,115.7,297.9,115.8,297.9,115.8,298,115.8,334.4,182.1,351.7,178.4,364.4,175.7,369.6,174.7,374.1,173.9,376.1,173.6,378.1,173.3,380,173,381.8,172.8,384.4,172.4,386.8,172.2,389.3,171.9,391.8,171.7,394.3,171.6,396.8,171.4,399.4,171.3,402.1,171.2,407.9,171.1,485,171,485,145.9,484.6,145.9,484.1,145.9,483.7,145.9,483.3,145.8,482.9,145.8,482.5,145.8,482.1,145.8,481.7,145.7,481.4,145.7,481,145.7,480.6,145.6,480.2,145.6,479.9,145.5,479.5,145.4,479.2,145.4,478.8,145.3,478.5,145.2,478.1,145.2,477.8,145.1,477.5,145,477.1,144.9,476.8,144.8,476.5,144.7,476.2,144.6,475.9,144.5,475.7,144.5,475.6,144.4,475.4,144.4,475.3,144.3,475.1,144.2,475,144.2,474.9,144.1,474.7,144.1,474.6,144,474.4,143.9,474.3,143.9,474.2,143.8,474,143.7,473.9,143.7,474,143.6,474.2,143.5,474.3,143.5,474.4,143.4,474.6,143.3,474.7,143.3,474.9,143.2,475,143.2,475.1,143.1,475.3,143,475.4,143,475.6,142.9,475.7,142.9,475.9,142.8,476.2,142.7,476.5,142.6,476.8,142.5,477.1,142.4,477.5,142.3,477.8,142.2,478.1,142.2,478.5,142.1,478.8,142,479.2,141.9,479.5,141.9,479.9,141.8,480.2,141.8,480.6,141.7,481,141.7,481.4,141.6,481.7,141.6,482.1,141.6,482.5,141.5,482.9,141.5,483.3,141.5,483.7,141.5,484.1,141.5,484.6,141.5,485,141.4,485,137.5,483.1,129.2,482.7,129.2,482.2,129.2,481.8,129.2,481.4,129.2,480.9,129.2,480.5,129.1,480.1,129.1,479.7,129.1,479.3,129,478.9,129,478.5,129,478.1,128.9,477.8,128.8,477.4,128.8,477,128.7,476.6,128.7,476.3,128.6,475.9,128.5,475.6,128.4,475.3,128.3,474.9,128.3,474.6,128.2,474.3,128.1,474,128,473.8,127.9,473.7,127.9,473.5,127.8,473.4,127.8,473.2,127.7,473.1,127.6,472.9,127.6,472.8,127.5,472.6,127.5,472.5,127.4,472.3,127.3,472.2,127.3,472.1,127.2,471.9,127.2,471.8,127.1,471.7,127,471.8,127,471.9,126.9,472.1,126.8,472.2,126.8,472.3,126.7,472.5,126.6,472.6,126.6,472.7,126.5,472.9,126.5,473,126.4,473.3,126.3,473.6,126.2,473.9,126.1,474.2,126,474.5,125.9,474.8,125.8,475.1,125.7,475.4,125.6,475.7,125.6,476,125.5,476.3,125.4,476.7,125.4,477,125.3,477.3,125.2,477.7,125.2,478,125.1,478.4,125.1,478.7,125,479.1,125,479.5,125,479.8,124.9,480.2,124.9,480.6,124.9,481,124.9,481.4,124.8,481.8,124.8,482.1,124.8,475.4,94.6,475,94.6,474.5,94.6,474.1,94.6,473.7,94.5,473.3,94.5,472.9,94.5,472.5,94.5,472.1,94.4,471.7,94.4,471.4,94.3,471,94.3,470.6,94.2,470.3,94.2,469.9,94.1,469.5,94.1,469.2,94,468.9,93.9,468.5,93.8,468.2,93.8,467.9,93.7,467.5,93.6,467.2,93.5,466.9,93.4,466.6,93.3,466.3,93.2,466.2,93.2,466,93.1,465.9,93.1,465.7,93,465.6,92.9,465.5,92.9,465.3,92.8,465.2,92.8,465,92.7,464.9,92.6,464.8,92.6,464.6,92.5,464.5,92.5,464.4,92.4,464.5,92.3,464.6,92.3,464.8,92.2,464.9,92.2,465,92.1,465.2,92,465.4,91.9,465.7,91.8,465.9,91.7,466.2,91.6,466.5,91.5,466.8,91.4,467.1,91.3,467.4,91.2,467.7,91.1,468,91.1,468.3,91,468.6,90.9,468.9,90.8,469.2,90.8,469.5,90.7,469.8,90.6,470.2,90.6,470.5,90.5,470.8,90.5,471.2,90.4,471.5,90.4,471.9,90.4,472.2,90.3,472.6,90.3,472.9,90.3,473.3,90.2,473.7,90.2,474,90.2,474.4,90.2,456.1,8.2,456.1,8.1,456.1,8.1,456,8,456,7.9,456,7.9,456,7.8,456,7.8,456,7.8,456,7.7,456,7.7,455.9,7.6,455.9,7.6,455.9,7.6,455.9,7.5,455.9,7.5,455.9,7.4,455.9,7.4,455.8,7.4,455.8,7.3,455.8,7.3,455.8,7.3,455.8,7.2,455.8,7.2,455.7,7.2,455.7,7.1,455.7,7.1,455.7,7.1,455.7,7.1,455.7,7,455.6,7,455.6,7,455.6,6.9,455.6,6.9,455.6,6.9,455.6,6.9,455.5,6.8,455.5,6.8,455.5,6.8,455.5,6.8,455.5,6.7,455.4,6.7,455.4,6.7,455.4,6.7,455.4,6.6,455.4,6.6,455.3,6.6,455.3,6.6,455.3,6.6,455.3,6.5,455.3,6.5,455.2,6.5,455.2,6.5,455.2,6.5,455.2,6.5,455.2,6.4,455.1,6.4,455.1,6.4,455.1,6.4,455.1,6.4,455.1,6.4,455,6.3,455,6.3,455,6.3,455,6.3,455,6.3,454.9,6.3,454.9,6.3,454.9,6.2,454.9,6.2,454.8,6.2,454.8,6.2,454.8,6.2,454.8,6.2,454.8,6.2,454.7,6.2,454.7,6.2,454.7,6.1,454.7,6.1,454.6,6.1,454.6,6.1,454.6,6.1,454.6,6.1,454.6,6.1,454.5,6.1,454.5,6.1,454.5,6.1,454.5,6.1,454.4,6.1,454.4,6,454.4,6,454.3,6,454.3,6,454.2,6,454.2,6,454.1,6,454.1,6,454.1,6,454,6,454,5.9,453.9,5.9,453.9,5.9,453.8,5.9,453.7,5.9,453.4,5.9,453.3,5.9,453.1,5.9,452.9,5.8,452.8,5.8,452.6,5.8,452.3,5.8,452,5.8,451.8,5.8,451,5.8,450.9,5.8,450.8,5.8,450.8,5.8,450.8,5.8,450.7,5.8,450.7,5.8,450.7,5.8,450.6,5.8,450.6,5.8,450.6,5.8,450.5,5.8,450.5,5.8,450.5,5.8,450.4,5.8,450.4,5.8,450.4,5.7,450.4,5.7,450.4,5.7,450.4,5.7,450.3,5.7,450.3,5.7,450.3,5.7,450.3,5.7,450.3,5.7,450.3,5.7,450.2,5.7,450.2,5.7,450.2,5.7,450.2,5.7,450.2,5.7,450.2,5.7,450.1,5.7,450.1,5.7,450.1,5.7,450.1,5.6,450.1,5.6,450.1,5.6,450.1,5.6,450,5.6,450,5.6,450,5.6,450,5.6,450,5.6,450,5.6,449.9,5.6,449.9,5.6,449.9,5.5,449.9,5.5,449.9,5.5,449.9,5.5,449.9,5.5,449.8,5.5,449.8,5.5,449.8,5.5,449.8,5.5,449.8,5.4,449.8,5.4,449.7,5.4,449.7,5.4,449.7,5.4,449.7,5.4,449.7,5.4,449.7,5.3,449.7,5.3,449.6,5.3,449.6,5.3,449.6,5.3,449.6,5.3,449.6,5.3,449.6,5.2,449.6,5.2,449.6,5.2,449.5,5.2,449.5,5.2,449.5,5.1,449.5,5.1,449.5,5.1,449.5,5.1,449.5,5.1,449.4,5,449.4,5,449.4,5,449.4,5,449.4,5,449.4,4.9,449.4,4.9,449.4,4.9,449.3,4.9,449.3,4.8,449.3,4.8,449.3,4.8,449.3,4.8,449.3,4.7,449.3,4.7,449.3,4.7,449.3,4.7,449.2,4.6,449.2,4.6,466.8,4.6,466.9,4.6,467,4.6,467.1,4.6,467.3,4.6,467.4,4.6,467.5,4.6,467.6,4.6,467.7,4.6,467.8,4.6,467.8,4.6,467.9,4.7,468,4.7,468.1,4.7,468.2,4.7,468.3,4.7,468.4,4.7,468.5,4.7,468.6,4.8,468.7,4.8,468.8,4.8,468.8,4.8,468.9,4.9,469,4.9,469.1,4.9,469.2,4.9,469.2,5,469.3,5,469.3,5,469.4,5,469.4,5,469.4,5,469.5,5.1,469.5,5.1,469.5,5.1,469.6,5.1,469.6,5.1,469.6,5.1,469.7,5.2,469.7,5.2,469.8,5.2,469.8,5.2,469.8,5.2,469.9,5.3,469.9,5.3,469.9,5.3,470,5.3,470,5.3,470,5.4,470.1,5.4,470.1,5.4,470.1,5.4,470.2,5.4,470.2,5.5,470.2,5.5,470.2,5.5,470.3,5.5,470.3,5.6,470.3,5.6,470.4,5.6,470.4,5.6,470.4,5.7,470.4,5.7,470.5,5.7,470.5,5.7,470.5,5.8,470.6,5.8,470.6,5.8,470.6,5.8,470.6,5.9,470.7,5.9,470.7,5.9,470.7,5.9,470.7,6,470.8,6,470.8,6,470.8,6.1,470.8,6.1,470.9,6.1,470.9,6.1,470.9,6.2,470.9,6.2,471,6.2,471,6.3,471,6.3,471,6.3,471.1,6.4,471.1,6.4,471.1,6.4,471.1,6.4,471.1,6.5,471.2,6.5,471.2,6.5,471.2,6.6,471.2,6.6,471.2,6.6,471.3,6.7,471.3,6.7,471.3,6.8,471.3,6.8,471.3,6.8,471.3,6.9,471.4,6.9" fill="none" stroke="#000" stroke-linecap="round" stroke-linejoin="round" stroke-width="3"/>
</svg>