<?xml version="1.0" encoding="UTF-8"?>
<svg id="Layer_1" data-name="Layer 1" xmlns="http://www.w3.org/2000/svg" viewBox="0 0 750 750">
  <defs>
    <style>
      .cls-1 {
        fill: none;
        stroke: #000;
        stroke-linecap: round;
        stroke-linejoin: round;
        stroke-width: 3.5px;
      }
    </style>
  </defs>
  <path class="cls-1" d="M476.27,340c-1.96-.02-3.86-.73-5.53-1.72-2.85-1.7-5.22-4.13-7.35-6.66-7.2-9.22-21.56-27.93-28.55-37.26,7.65,1.23,15.49,2.02,23.24,1.5,4.48-.3,9-1.09,13.31-2.35.5-.14.94-.46,1.24-.89.19-.27.32-.59.38-.92.32-3.36.46-6.93.51-10.31.04-4.37-.1-8.89-.51-13.25-.09-.51-.36-.99-.75-1.33-.19-.17-.41-.3-.64-.4-.6-.22-1.66-.47-2.28-.64-5.77-1.5-11.78-2.06-17.73-1.94-8.55.18-17.15,1.56-25.51,3.27-.16.03-.31.12-.42.25-.09.1-.15.23-.17.36v.09s-.12,3.05-.12,3.05l-2.59.66-.08,2.49h-2.92c-16.63-22.35-88.81-127.83-105.7-150.75-2.17-2.89-4.47-5.93-6.9-8.6-1.77-1.95-3.73-3.79-5.86-5.34-2.6-1.91-5.5-3.45-8.57-4.45-2.59-.85-5.33-1.3-8.05-1.47-1.93-.12-4.33-.1-6.27-.08-.38.01-.78.02-1.16.09-.21.04-.43.1-.58.26-.08.09-.11.21-.06.32.11.24.44.36.68.43,1.6.39,3.47.52,5.07.92,1.49.36,2.95.95,4.2,1.84,1.72,1.18,2.89,2.97,3.91,4.75,1.3,2.29,2.55,4.94,3.66,7.33,10.89,24.57,34.21,81.11,44.35,105.54-1.87.34-3.78.74-5.54,1.45-.16.07-.36.16-.47.29l-.04.1v.17c.05.1.13.17.22.24.2.15.44.26.66.37.51.24,1.05.45,1.59.63,1.73.55,3.58.88,5.38,1.15,3.56,8.79,9.06,22.42,12.26,31.23-1.98.35-3.99.76-5.86,1.49-.17.08-.42.17-.53.33l-.04.1v.16c.05.1.13.17.22.24.2.15.44.26.66.37.52.24,1.07.46,1.62.63,1.78.57,3.69.89,5.54,1.17,1.76,5.14,3.58,10.59,4.62,15.91,1.16,5.87,1.68,12.11,2.11,18.08-1.75.27-3.53.59-5.24,1.07-.7.21-1.42.41-2.07.72-.11.06-.22.12-.29.22l-.03.15c0,.14.11.24.2.32.21.16.45.27.68.39.47.22.96.42,1.45.58,1.8.59,3.71.92,5.58,1.21.54,10.33.73,22.85.76,33.22-8.69.05-17.61.44-26.19,1.93-1.07.21-2.21.44-3.25.77-.41.13-.83.28-1.21.49-20.54.19-66.87-.59-86.7.83-11.12.73-22.43,2.29-33.31,4.73l-25.18,5.92c-2.33-.1-4.6-.95-6.37-2.48-.43-.36-.83-.77-1.21-1.19-.13-.15-.29-.33-.41-.49l-.2-.26c-.21-.27-36.45-47.62-36.64-47.86-1.16-1.48-2.44-2.88-3.84-4.14-2.46-2.23-5.34-4.01-8.46-5.17-1.06-.4-2.18-.73-3.28-.99-.27-.06-.66-.15-.93-.2l-12.09-2.38,25.56,71.52c-4.24,1.02-8.62,2.31-12.72,3.77v.96c-2.6.12-5.92.25-8.48.53-.53.06-1.1.13-1.62.25-.26.06-.63.14-.84.32h0s0,.01,0,.01h0s0,.01,0,.01h0s0,.01,0,.01h0s0,.01,0,.01h0s0,.01,0,.01h0s0,.01,0,.01h0s0,.01,0,.01h0s0,.01,0,.01h0s0,.01,0,.01h0s0,.01,0,.01h0s0,.01,0,.01h0s0,.01,0,.01h0s0,.01,0,.01h0s0,.01,0,.01h0v.02h0v.02h0s0,.01,0,.01h0s0,.01,0,.01h0s0,.01,0,.01h0s0,.01,0,.01h0s0,.01,0,.01h0s0,.01,0,.01h0s0,.01,0,.01h0s0,.01,0,.01h0s0,.01,0,.01h0s0,.01,0,.01h0s0,.01,0,.01h0s0,.01,0,.01h0s0,.01,0,.01h0s0,.01,0,.01c.21.17.58.25.84.32.52.11,1.09.19,1.62.25,2.56.28,5.89.41,8.48.53v.96c4.11,1.46,8.49,2.75,12.72,3.77l-25.56,71.52c.85-.16,12.43-2.44,13.02-2.58,1.11-.26,2.22-.59,3.28-.99,3.12-1.16,5.99-2.95,8.46-5.17,1.4-1.26,2.68-2.66,3.84-4.14.16-.21,36.45-47.61,36.64-47.86l.1-.13.1-.13c.12-.15.28-.34.41-.49.37-.42.78-.82,1.21-1.19,1.77-1.53,4.04-2.38,6.37-2.48l25.18,5.92c10.88,2.44,22.19,4,33.31,4.73,19.6,1.41,66.47.64,86.7.83.38.21.8.36,1.21.49,1.04.33,2.18.57,3.25.77,8.57,1.5,17.5,1.88,26.19,1.93-.04,10.38-.23,22.88-.76,33.22-1.87.29-3.78.62-5.58,1.21-.49.16-.98.36-1.45.58-.23.11-.47.23-.68.39-.1.08-.21.18-.2.32l.03.15c.05.09.15.15.24.2.58.3,1.23.48,1.85.67,1.79.52,3.66.87,5.5,1.15-.43,5.98-.95,12.21-2.11,18.08-1.04,5.32-2.86,10.78-4.62,15.91-1.9.29-3.86.62-5.69,1.22-.49.16-.99.36-1.46.58-.23.11-.47.23-.68.39-.11.08-.22.19-.2.34l.03.13.2.18c.49.27,1.06.43,1.59.6,1.49.46,3.07.79,4.61,1.05-3.18,8.77-8.72,22.48-12.26,31.23-1.85.29-3.75.62-5.53,1.2-.49.16-.98.36-1.44.58-.23.11-.47.23-.68.39-.08.06-.16.13-.19.22v.16s.03.1.03.1c.11.15.36.25.53.32,1.75.68,3.63,1.08,5.48,1.42-8.9,21.66-32.76,78.9-42.32,101.06-1.62,3.57-3.51,7.88-5.39,11.28-.65,1.17-1.36,2.36-2.2,3.4-.94,1.16-2.15,2.1-3.49,2.75-1.52.75-3.21,1.12-4.87,1.37-.75.12-2.16.3-2.88.5-.14.04-.29.09-.42.16-.13.07-.27.18-.31.33-.05.17.09.31.23.39.29.15.62.17.94.2.46.04,1.05.03,1.51.04,2.51,0,5.29.02,7.78-.31,2.48-.3,4.95-.9,7.27-1.82,2.8-1.1,5.43-2.65,7.8-4.5,1.98-1.54,3.81-3.33,5.48-5.21,2.24-2.52,4.43-5.41,6.45-8.11,16.97-23.04,88.96-128.24,105.7-150.75h2.92l.08,2.49,2.59.66.11,3.05v.1c.04.13.1.25.18.35.11.13.26.21.42.25,8.37,1.72,16.96,3.1,25.51,3.27,5.95.12,11.97-.44,17.73-1.94.63-.19,1.7-.42,2.32-.66.22-.09.43-.22.61-.38.4-.35.67-.84.76-1.37.39-4.34.54-8.85.5-13.21-.05-3.38-.19-6.95-.51-10.31-.06-.33-.19-.64-.38-.92-.3-.43-.74-.75-1.24-.89-4.31-1.27-8.82-2.06-13.31-2.35-7.75-.51-15.59.27-23.24,1.5,6.98-9.31,21.36-28.05,28.55-37.26,1.87-2.23,3.93-4.36,6.33-6.01,1.49-1.02,3.15-1.85,4.94-2.2.56-.11,1.13-.17,1.7-.17h88.63c.96,0,2.82-.02,3.77-.04,2.94-.07,6.22-.23,9.15-.45,10.86-.82,21.85-2.67,32.44-5.17,9.78-2.37,19.82-5.02,28.97-9.25,2.39-1.1,4.86-2.27,7.05-3.74,2.62-1.77,5.35-4.42,3-7.64-1.01-1.35-2.42-2.35-3.83-3.24-3-1.83-6.32-3.28-9.55-4.66-6.66-2.78-13.86-4.82-20.85-6.62-9.84-2.51-20.15-4.55-30.24-5.69-4.67-.53-9.57-.9-14.27-1.06-.92-.02-2.82-.08-3.74-.08h-1.9c-.09-.01-88.64-.01-88.72-.01Z"/>
  <!-- Add a simple centroid reference point - this won't be visible but helps stabilize the center calculation -->
  <circle cx="375" cy="375" r="1" fill="none" stroke="none" />
</svg>