<?xml version="1.0" encoding="UTF-8"?>
<svg id="Layer_1" xmlns="http://www.w3.org/2000/svg" version="1.1" xmlns:x="http://ns.adobe.com/Extensibility/1.0/" viewBox="0 0 438.2 475">
  <!-- Generator: Adobe Illustrator 29.5.1, SVG Export Plug-In . SVG Version: 2.1.0 Build 141)  -->
  <defs>
    <style>
      .st0 {
        fill: none;
        stroke: #000;
        stroke-linecap: round;
        stroke-linejoin: round;
        stroke-width: 3px;
      }
    </style>
  </defs>
  <g id="_x32_D_x24_AG-OUTLINE">
    <g id="POLYLINE">
      <polygon class="st0" points="190.9 54.3 190.9 54.3 241.3 162.7 242.8 165.8 244.2 168.7 245.6 171.5 246.3 172.8 247 174.1 247.8 175.3 248.5 176.6 249.2 177.9 250 179.1 251.5 181.7 253.7 181.7 253.7 178.3 261.4 177.6 267.7 177.2 270.4 177 272.9 176.9 275.1 176.8 277.1 176.7 278.8 176.7 279.6 176.7 280.4 176.7 281.1 176.7 281.8 176.7 282.4 176.8 283 176.8 283.5 176.8 284 176.9 284.5 176.9 284.9 177 285.4 177 285.8 177.1 286.1 177.1 286.5 177.2 286.8 177.2 287.1 177.3 287.4 177.3 287.7 177.4 287.9 177.4 288.1 177.5 288.2 177.5 288.3 177.5 288.4 177.5 288.5 177.6 288.6 177.6 288.7 177.6 288.8 177.7 288.9 177.7 289 177.7 289.1 177.7 289.2 177.8 289.3 177.8 289.3 177.8 289.3 177.8 289.4 177.9 289.4 177.9 289.4 177.9 289.5 177.9 289.5 177.9 289.5 177.9 289.6 177.9 289.6 178 289.6 178 289.7 178 289.7 178 289.7 178 289.8 178 289.8 178.1 289.8 178.1 289.8 178.1 289.9 178.1 289.9 178.1 289.9 178.1 289.9 178.2 290 178.2 290 178.2 290 178.2 290 178.2 290 178.3 290.1 178.3 290.1 178.3 290.1 178.3 290.1 178.3 290.1 178.3 290.2 178.4 290.2 178.4 290.2 178.4 290.2 178.4 290.2 178.4 290.2 178.5 290.3 178.5 290.3 178.5 290.3 178.5 290.3 178.5 290.3 178.5 290.3 178.6 290.3 178.6 290.3 178.6 290.4 178.6 290.4 178.6 290.4 178.7 290.4 178.7 290.4 178.7 290.4 178.7 290.4 178.7 290.4 178.8 290.4 178.8 290.4 178.8 290.5 178.8 290.5 178.8 290.5 178.9 290.5 178.9 290.5 178.9 290.5 178.9 290.5 178.9 290.5 179 290.5 179 290.5 179 290.5 179 290.5 179 290.5 179.1 290.5 179.1 290.6 179.1 290.6 179.2 290.6 179.2 290.6 179.3 290.6 179.4 290.6 179.4 290.6 179.5 290.6 179.6 290.7 179.7 290.7 179.8 290.7 180 290.7 180.1 290.7 180.2 290.7 180.3 290.7 180.5 290.7 180.8 290.7 181.2 290.7 181.6 290.8 187.9 290.7 194.3 290.7 194.7 290.7 195.1 290.7 195.4 290.7 195.5 290.7 195.7 290.7 195.8 290.7 195.9 290.7 196 290.7 196.1 290.6 196.2 290.6 196.3 290.6 196.4 290.6 196.5 290.6 196.6 290.6 196.7 290.6 196.7 290.6 196.7 290.5 196.8 290.5 196.8 290.5 196.8 290.5 196.8 290.5 196.9 290.5 196.9 290.5 196.9 290.5 196.9 290.5 197 290.5 197 290.5 197 290.5 197 290.5 197 290.5 197.1 290.4 197.1 290.4 197.1 290.4 197.1 290.4 197.1 290.4 197.2 290.4 197.2 290.4 197.2 290.4 197.2 290.4 197.2 290.4 197.2 290.3 197.3 290.3 197.3 290.3 197.3 290.3 197.3 290.3 197.3 290.3 197.4 290.3 197.4 290.3 197.4 290.2 197.4 290.2 197.4 290.2 197.5 290.2 197.5 290.2 197.5 290.2 197.5 290.1 197.5 290.1 197.5 290.1 197.6 290.1 197.6 290.1 197.6 290 197.6 290 197.6 290 197.7 290 197.7 290 197.7 289.9 197.7 289.9 197.7 289.9 197.7 289.9 197.8 289.8 197.8 289.8 197.8 289.8 197.8 289.8 197.8 289.7 197.8 289.7 197.9 289.7 197.9 289.6 197.9 289.6 197.9 289.6 197.9 289.5 197.9 289.5 198 289.5 198 289.4 198 289.4 198 289.4 198 289.3 198 289.3 198 289.3 198.1 289.2 198.1 289.1 198.1 289 198.2 288.9 198.2 288.8 198.2 288.7 198.2 288.6 198.3 288.5 198.3 288.4 198.3 288.3 198.4 288.2 198.4 288.1 198.4 287.9 198.4 287.7 198.5 287.4 198.6 287.1 198.6 286.8 198.7 286.5 198.7 286.2 198.8 285.9 198.8 285.6 198.8 285.2 198.9 284.9 198.9 284.5 199 284.1 199 283.6 199 283.2 199.1 282.7 199.1 282.2 199.1 281.7 199.1 280.5 199.2 279.3 199.2 277.8 199.2 276.3 199.1 274.6 199.1 272.7 199 270.6 198.9 268.3 198.8 263.2 198.4 266.4 202.6 270.2 207.2 274.5 212.5 279.5 218.4 337.2 218.4 349.1 218.5 354.4 218.7 359.4 218.9 361.8 219 364.2 219.2 366.6 219.3 368.9 219.5 371.2 219.8 373.6 220 375.9 220.3 378.2 220.6 380.5 220.9 382.8 221.2 387.3 222 391.7 222.8 395.9 223.6 399.9 224.4 403.8 225.3 407.5 226.2 410.9 227.1 412.5 227.5 414.1 228 415.6 228.4 417.1 228.9 418.5 229.3 419.8 229.8 421.1 230.2 422.3 230.7 423.5 231.1 424.1 231.4 424.6 231.6 425.1 231.8 425.7 232 426.2 232.3 426.6 232.5 427.1 232.7 427.6 232.9 428 233.2 428.4 233.4 428.9 233.6 429.3 233.8 429.6 234.1 430 234.3 430.4 234.5 430.5 234.6 430.7 234.7 430.9 234.8 431 234.9 431.2 235 431.3 235.2 431.5 235.3 431.6 235.4 431.8 235.5 431.9 235.6 432 235.7 432.2 235.8 432.3 235.9 432.4 236 432.5 236.1 432.7 236.2 432.8 236.3 432.9 236.4 433 236.5 433.1 236.6 433.2 236.7 433.3 236.8 433.3 236.9 433.4 236.9 433.4 237 433.4 237 433.5 237.1 433.5 237.1 433.6 237.2 433.6 237.2 433.6 237.3 433.7 237.3 433.7 237.4 433.7 237.4 433.8 237.5 433.8 237.5 433.8 237.6 433.9 237.6 433.9 237.7 433.9 237.7 434 237.7 434 237.8 434 237.8 434 237.9 434.1 237.9 434.1 238 434.1 238 434.1 238.1 434.1 238.1 434.2 238.2 434.2 238.2 434.2 238.2 434.2 238.3 434.2 238.3 434.2 238.3 434.2 238.4 434.2 238.4 434.3 238.4 434.3 238.4 434.3 238.4 434.3 238.5 434.3 238.5 434.3 238.5 434.3 238.5 434.3 238.6 434.3 238.6 434.3 238.6 434.3 238.6 434.3 238.6 434.3 238.7 434.3 238.7 434.3 238.7 434.3 238.7 434.3 238.7 434.3 238.8 434.3 238.8 434.3 238.8 434.3 238.8 434.3 238.9 434.3 238.9 434.3 238.9 434.3 238.9 434.3 238.9 434.4 239 434.4 239 434.4 239 434.4 239 434.4 239 434.4 239.1 434.4 239.1 434.3 239.1 434.3 239.1 434.3 239.1 434.3 239.2 434.3 239.2 434.3 239.2 434.3 239.2 434.3 239.2 434.3 239.3 434.3 239.3 434.3 239.3 434.3 239.3 434.3 239.3 434.3 239.4 434.3 239.4 434.3 239.4 434.3 239.4 434.3 239.5 434.3 239.5 434.3 239.5 434.3 239.5 434.3 239.5 434.3 239.6 434.3 239.6 434.3 239.6 434.3 239.6 434.2 239.7 434.2 239.7 434.2 239.7 434.2 239.7 434.2 239.7 434.2 239.8 434.2 239.8 434.2 239.9 434.1 239.9 434.1 240 434.1 240 434.1 240.1 434.1 240.1 434 240.1 434 240.2 434 240.2 434 240.3 433.9 240.3 433.9 240.4 433.9 240.4 433.8 240.5 433.8 240.5 433.8 240.6 433.7 240.6 433.7 240.7 433.7 240.7 433.6 240.8 433.6 240.8 433.6 240.9 433.5 240.9 433.5 241 433.4 241 433.4 241.1 433.4 241.1 433.3 241.2 433.3 241.2 433.2 241.3 433.1 241.4 433 241.5 432.9 241.6 432.8 241.7 432.7 241.8 432.5 241.9 432.4 242 432.3 242.1 432.2 242.2 432 242.3 431.9 242.4 431.8 242.6 431.6 242.7 431.5 242.8 431.3 242.9 431.2 243 431 243.1 430.9 243.2 430.7 243.3 430.5 243.4 430.4 243.5 430 243.8 429.6 244 429.3 244.2 428.9 244.4 428.4 244.6 428 244.9 427.6 245.1 427.1 245.3 426.6 245.5 426.2 245.8 425.7 246 425.1 246.2 424.6 246.4 424.1 246.7 423.5 246.9 422.3 247.3 421.1 247.8 419.8 248.2 418.5 248.7 417.1 249.1 415.6 249.6 414.1 250 412.5 250.5 410.9 250.9 407.5 251.8 403.8 252.7 399.9 253.6 395.9 254.4 391.7 255.3 387.3 256.1 382.8 256.8 380.5 257.1 378.2 257.4 375.9 257.7 373.6 258 371.2 258.3 368.9 258.5 366.6 258.7 364.2 258.9 361.8 259 359.4 259.2 354.4 259.4 349.1 259.5 337.2 259.6 279.5 259.6 274.5 265.5 270.2 270.8 266.4 275.5 263.2 279.6 268.3 279.3 270.6 279.1 272.7 279 274.6 279 276.3 278.9 277.8 278.9 279.3 278.9 280.5 278.9 281.7 278.9 282.2 278.9 282.7 279 283.2 279 283.6 279 284.1 279 284.5 279.1 284.9 279.1 285.2 279.1 285.6 279.2 285.9 279.2 286.2 279.3 286.5 279.3 286.8 279.4 287.1 279.4 287.4 279.5 287.7 279.5 287.9 279.6 288.1 279.6 288.2 279.6 288.3 279.7 288.4 279.7 288.5 279.7 288.6 279.8 288.7 279.8 288.8 279.8 288.9 279.8 289 279.9 289.1 279.9 289.2 279.9 289.3 280 289.3 280 289.3 280 289.4 280 289.4 280 289.4 280 289.5 280.1 289.5 280.1 289.5 280.1 289.6 280.1 289.6 280.1 289.6 280.1 289.7 280.2 289.7 280.2 289.7 280.2 289.8 280.2 289.8 280.2 289.8 280.2 289.8 280.3 289.9 280.3 289.9 280.3 289.9 280.3 289.9 280.3 290 280.3 290 280.4 290 280.4 290 280.4 290 280.4 290.1 280.4 290.1 280.5 290.1 280.5 290.1 280.5 290.1 280.5 290.2 280.5 290.2 280.5 290.2 280.6 290.2 280.6 290.2 280.6 290.2 280.6 290.3 280.6 290.3 280.7 290.3 280.7 290.3 280.7 290.3 280.7 290.3 280.7 290.3 280.7 290.3 280.8 290.4 280.8 290.4 280.8 290.4 280.8 290.4 280.8 290.4 280.9 290.4 280.9 290.4 280.9 290.4 280.9 290.4 280.9 290.4 281 290.5 281 290.5 281 290.5 281 290.5 281 290.5 281.1 290.5 281.1 290.5 281.1 290.5 281.1 290.5 281.1 290.5 281.2 290.5 281.2 290.5 281.2 290.5 281.2 290.5 281.3 290.6 281.3 290.6 281.3 290.6 281.4 290.6 281.4 290.6 281.5 290.6 281.6 290.6 281.7 290.6 281.8 290.7 281.9 290.7 282 290.7 282.1 290.7 282.2 290.7 282.4 290.7 282.5 290.7 282.6 290.7 283 290.7 283.3 290.7 283.8 290.8 290.1 290.7 296.4 290.7 296.8 290.7 297.2 290.7 297.5 290.7 297.7 290.7 297.8 290.7 298 290.7 298.1 290.7 298.2 290.7 298.3 290.6 298.4 290.6 298.5 290.6 298.6 290.6 298.7 290.6 298.8 290.6 298.8 290.6 298.9 290.6 298.9 290.5 298.9 290.5 299 290.5 299 290.5 299 290.5 299 290.5 299.1 290.5 299.1 290.5 299.1 290.5 299.1 290.5 299.1 290.5 299.2 290.5 299.2 290.5 299.2 290.5 299.2 290.4 299.2 290.4 299.3 290.4 299.3 290.4 299.3 290.4 299.3 290.4 299.3 290.4 299.4 290.4 299.4 290.4 299.4 290.4 299.4 290.3 299.4 290.3 299.5 290.3 299.5 290.3 299.5 290.3 299.5 290.3 299.5 290.3 299.5 290.3 299.6 290.2 299.6 290.2 299.6 290.2 299.6 290.2 299.6 290.2 299.7 290.2 299.7 290.1 299.7 290.1 299.7 290.1 299.7 290.1 299.7 290.1 299.8 290 299.8 290 299.8 290 299.8 290 299.8 290 299.8 289.9 299.9 289.9 299.9 289.9 299.9 289.9 299.9 289.8 299.9 289.8 300 289.8 300 289.8 300 289.7 300 289.7 300 289.7 300 289.6 300.1 289.6 300.1 289.6 300.1 289.5 300.1 289.5 300.1 289.5 300.1 289.4 300.1 289.4 300.2 289.4 300.2 289.3 300.2 289.3 300.2 289.3 300.2 289.2 300.3 289.1 300.3 289 300.3 288.9 300.3 288.8 300.4 288.7 300.4 288.6 300.4 288.5 300.5 288.4 300.5 288.3 300.5 288.2 300.6 288.1 300.6 287.9 300.6 287.7 300.7 287.4 300.7 287.1 300.8 286.8 300.8 286.5 300.9 286.1 300.9 285.8 301 285.4 301 284.9 301.1 284.5 301.1 284 301.2 283.5 301.2 283 301.2 282.4 301.3 281.8 301.3 281.1 301.3 280.4 301.3 279.6 301.3 278.8 301.3 277.1 301.3 275.1 301.3 272.9 301.2 270.4 301 267.7 300.9 261.4 300.4 253.7 299.7 253.7 296.3 251.5 296.3 250 298.9 249.2 300.2 248.5 301.4 247.8 302.7 247 304 246.3 305.3 245.6 306.6 244.2 309.3 242.8 312.2 241.3 315.3 190.9 423.7 190.9 423.7 190.9 423.7 190.9 423.7 190.8 423.8 190.8 423.8 190.8 423.9 190.8 423.9 190.8 423.9 190.7 424 190.7 424 190.7 424 190.7 424.1 190.7 424.1 190.7 424.1 190.6 424.2 190.6 424.2 190.6 424.2 190.6 424.3 190.5 424.3 190.5 424.3 190.5 424.3 190.5 424.4 190.5 424.4 190.4 424.4 190.4 424.5 190.4 424.5 190.4 424.5 190.3 424.6 190.3 424.6 190.3 424.6 190.3 424.6 190.2 424.7 190.2 424.7 190.2 424.7 190.2 424.7 190.1 424.8 190.1 424.8 190.1 424.8 190 424.9 190 424.9 190 424.9 190 424.9 189.9 425 189.9 425 189.9 425 189.8 425 189.8 425 189.8 425.1 189.8 425.1 189.7 425.1 189.7 425.1 189.7 425.2 189.6 425.2 189.6 425.2 189.6 425.2 189.5 425.2 189.5 425.3 189.5 425.3 189.4 425.3 189.4 425.3 189.4 425.3 189.3 425.4 189.3 425.4 189.3 425.4 189.2 425.4 189.2 425.4 189.2 425.5 189.1 425.5 189.1 425.5 189.1 425.5 189 425.5 189 425.5 188.9 425.6 188.9 425.6 188.9 425.6 188.8 425.6 188.8 425.6 188.8 425.6 188.7 425.7 188.6 425.7 188.5 425.7 188.4 425.7 188.3 425.8 188.3 425.8 188.2 425.8 188.1 425.8 188 425.9 187.9 425.9 187.8 425.9 187.7 425.9 187.6 425.9 187.6 425.9 187.5 426 187.4 426 187.3 426 187.2 426 187.1 426 187 426 186.9 426 186.8 426 186.7 426 186.6 426 186.5 426 186.3 426 168.7 426 168.8 426 168.8 425.9 168.8 425.9 168.8 425.9 168.8 425.9 168.8 425.8 168.8 425.8 168.8 425.8 168.8 425.8 168.9 425.7 168.9 425.7 168.9 425.7 168.9 425.7 168.9 425.6 168.9 425.6 168.9 425.6 168.9 425.6 169 425.6 169 425.5 169 425.5 169 425.5 169 425.5 169 425.5 169 425.4 169.1 425.4 169.1 425.4 169.1 425.4 169.1 425.4 169.1 425.3 169.1 425.3 169.1 425.3 169.1 425.3 169.2 425.3 169.2 425.3 169.2 425.3 169.2 425.2 169.2 425.2 169.2 425.2 169.2 425.2 169.3 425.2 169.3 425.2 169.3 425.2 169.3 425.1 169.3 425.1 169.3 425.1 169.3 425.1 169.4 425.1 169.4 425.1 169.4 425.1 169.4 425.1 169.4 425.1 169.4 425 169.5 425 169.5 425 169.5 425 169.5 425 169.5 425 169.5 425 169.5 425 169.6 425 169.6 425 169.6 425 169.6 425 169.6 424.9 169.6 424.9 169.7 424.9 169.7 424.9 169.7 424.9 169.7 424.9 169.7 424.9 169.7 424.9 169.8 424.9 169.8 424.9 169.8 424.9 169.8 424.9 169.8 424.9 169.8 424.9 169.9 424.9 169.9 424.9 169.9 424.9 169.9 424.9 169.9 424.9 169.9 424.9 170 424.8 170 424.8 170 424.8 170 424.8 170.1 424.8 170.1 424.8 170.1 424.8 170.2 424.8 170.2 424.8 170.2 424.8 170.3 424.8 170.3 424.8 170.4 424.8 170.4 424.8 170.5 424.8 171.3 424.8 171.6 424.8 171.8 424.8 172.1 424.8 172.3 424.8 172.5 424.8 172.6 424.7 172.8 424.7 172.9 424.7 173.2 424.7 173.3 424.7 173.4 424.7 173.4 424.7 173.5 424.7 173.5 424.7 173.6 424.6 173.6 424.6 173.7 424.6 173.7 424.6 173.7 424.6 173.8 424.6 173.8 424.6 173.9 424.6 173.9 424.6 174 424.6 174 424.5 174 424.5 174 424.5 174 424.5 174.1 424.5 174.1 424.5 174.1 424.5 174.1 424.5 174.2 424.5 174.2 424.5 174.2 424.5 174.2 424.4 174.2 424.4 174.3 424.4 174.3 424.4 174.3 424.4 174.3 424.4 174.4 424.4 174.4 424.4 174.4 424.4 174.4 424.3 174.4 424.3 174.5 424.3 174.5 424.3 174.5 424.3 174.5 424.3 174.6 424.3 174.6 424.2 174.6 424.2 174.6 424.2 174.6 424.2 174.7 424.2 174.7 424.2 174.7 424.2 174.7 424.1 174.7 424.1 174.8 424.1 174.8 424.1 174.8 424.1 174.8 424 174.8 424 174.9 424 174.9 424 174.9 424 174.9 423.9 174.9 423.9 175 423.9 175 423.9 175 423.8 175 423.8 175 423.8 175.1 423.8 175.1 423.7 175.1 423.7 175.1 423.7 175.1 423.7 175.1 423.6 175.2 423.6 175.2 423.6 175.2 423.5 175.2 423.5 175.2 423.5 175.2 423.5 175.3 423.4 175.3 423.4 175.3 423.4 175.3 423.3 175.3 423.3 175.3 423.3 175.4 423.2 175.4 423.2 175.4 423.2 175.4 423.1 175.4 423.1 175.4 423 175.4 423 175.5 423 175.5 422.9 175.5 422.9 175.5 422.9 175.5 422.8 175.5 422.8 175.5 422.7 175.5 422.7 175.6 422.6 175.6 422.6 175.6 422.5 175.6 422.4 193.9 340.4 193.6 340.4 193.2 340.4 192.8 340.4 192.4 340.3 192.1 340.3 191.7 340.3 191.4 340.2 191 340.2 190.7 340.2 190.3 340.1 190 340.1 189.7 340 189.3 340 189 339.9 188.7 339.8 188.4 339.8 188.1 339.7 187.8 339.6 187.5 339.5 187.2 339.5 186.9 339.4 186.6 339.3 186.3 339.2 186 339.1 185.7 339 185.5 338.9 185.2 338.8 184.9 338.7 184.7 338.6 184.5 338.5 184.4 338.5 184.3 338.4 184.2 338.3 184 338.3 183.9 338.2 184 338.1 184.2 338.1 184.3 338 184.4 338 184.6 337.9 184.7 337.8 184.8 337.8 185 337.7 185.1 337.7 185.3 337.6 185.4 337.5 185.5 337.5 185.7 337.4 185.8 337.4 186.1 337.3 186.4 337.2 186.7 337.1 187.1 337 187.4 336.9 187.7 336.8 188 336.8 188.4 336.7 188.7 336.6 189.1 336.5 189.4 336.5 189.8 336.4 190.1 336.4 190.5 336.3 190.9 336.3 191.3 336.2 191.6 336.2 192 336.1 192.4 336.1 192.8 336.1 193.2 336.1 193.6 336 194.1 336 194.5 336 194.9 336 201.7 305.8 201.3 305.8 200.9 305.8 200.5 305.8 200.1 305.7 199.7 305.7 199.3 305.7 199 305.6 198.6 305.6 198.3 305.6 197.9 305.5 197.5 305.5 197.2 305.4 196.9 305.4 196.5 305.3 196.2 305.2 195.9 305.2 195.5 305.1 195.2 305 194.9 305 194.6 304.9 194.3 304.8 194 304.7 193.7 304.6 193.4 304.5 193.1 304.4 192.8 304.3 192.5 304.2 192.4 304.1 192.2 304.1 192.1 304 192 304 191.8 303.9 191.7 303.8 191.6 303.8 191.4 303.7 191.3 303.6 191.2 303.6 191.3 303.5 191.4 303.4 191.6 303.4 191.7 303.3 191.9 303.3 192 303.2 192.1 303.1 192.3 303.1 192.4 303 192.6 303 192.7 302.9 192.9 302.8 193 302.8 193.2 302.7 193.3 302.7 193.5 302.6 193.8 302.5 194.1 302.4 194.4 302.3 194.8 302.3 195.1 302.2 195.5 302.1 195.8 302 196.2 301.9 196.5 301.9 196.9 301.8 197.3 301.8 197.6 301.7 198 301.6 198.4 301.6 198.8 301.6 199.2 301.5 199.6 301.5 200 301.5 200.5 301.4 200.9 301.4 201.3 301.4 201.8 301.4 202.2 301.4 202.7 301.4 204.5 293.1 204.5 289.2 204.1 289.2 203.7 289.1 203.2 289.1 202.8 289.1 202.4 289.1 202 289.1 201.6 289 201.3 289 200.9 289 200.5 288.9 200.1 288.9 199.7 288.8 199.4 288.8 199 288.7 198.7 288.7 198.3 288.6 198 288.5 197.6 288.4 197.3 288.4 197 288.3 196.7 288.2 196.3 288.1 196 288 195.7 287.9 195.4 287.8 195.3 287.7 195.1 287.7 195 287.6 194.8 287.6 194.7 287.5 194.5 287.5 194.4 287.4 194.2 287.3 194.1 287.3 194 287.2 193.8 287.1 193.7 287.1 193.5 287 193.4 286.9 193.5 286.9 193.7 286.8 193.8 286.7 194 286.7 194.1 286.6 194.2 286.5 194.4 286.5 194.5 286.4 194.7 286.4 194.8 286.3 195 286.2 195.1 286.2 195.3 286.1 195.4 286.1 195.7 286 196 285.9 196.3 285.8 196.7 285.7 197 285.6 197.3 285.5 197.6 285.4 198 285.4 198.3 285.3 198.7 285.2 199 285.2 199.4 285.1 199.7 285 200.1 285 200.5 284.9 200.9 284.9 201.3 284.9 201.6 284.8 202 284.8 202.4 284.8 202.8 284.8 203.2 284.7 203.7 284.7 204.1 284.7 204.5 284.7 204.5 259.6 127.4 259.5 121.7 259.4 118.9 259.3 116.3 259.2 113.8 259.1 111.3 258.9 108.8 258.7 106.4 258.4 103.9 258.2 101.3 257.8 99.5 257.6 97.6 257.3 95.6 257 93.6 256.7 89.1 255.9 84 254.9 71.2 252.2 53.9 248.5 17.5 314.8 17.5 314.8 17.4 314.8 17.4 314.9 17.4 314.9 17.4 314.9 17.4 314.9 17.3 315 17.3 315 17.3 315 17.3 315 17.3 315.1 17.2 315.1 17.2 315.1 17.2 315.1 17.2 315.2 17.2 315.2 17.1 315.2 17.1 315.2 17.1 315.3 17.1 315.3 17 315.3 17 315.3 17 315.3 17 315.4 16.9 315.4 16.9 315.4 16.9 315.4 16.9 315.4 16.8 315.5 16.8 315.5 16.8 315.5 16.8 315.5 16.7 315.5 16.7 315.5 16.7 315.5 16.6 315.6 16.6 315.6 16.6 315.6 16.6 315.6 16.5 315.6 16.5 315.6 16.5 315.6 16.4 315.6 16.4 315.7 16.4 315.7 16.3 315.7 16.3 315.7 16.3 315.7 16.2 315.7 16.2 315.7 16.2 315.7 16.2 315.7 16.1 315.7 16.1 315.7 16.1 315.7 16 315.7 16 315.7 16 315.7 15.9 315.7 15.9 315.7 15.9 315.7 15.8 315.7 4.1 315.7 18.8 240.6 14.8 239.8 14.1 239.7 13.8 239.7 13.5 239.6 13.4 239.6 13.3 239.6 13.2 239.6 13.2 239.6 13.1 239.6 13.1 239.6 13.1 239.6 13 239.6 13 239.6 13 239.6 13 239.6 12.9 239.6 12.9 239.6 12.9 239.5 12.9 239.5 12.9 239.5 12.8 239.5 12.8 239.5 12.8 239.5 12.8 239.5 12.8 239.5 12.8 239.5 12.8 239.5 12.8 239.5 12.8 239.5 12.8 239.5 12.8 239.5 12.7 239.5 12.7 239.5 12.7 239.5 12.7 239.5 12.7 239.5 12.7 239.5 12.7 239.5 12.7 239.5 12.7 239.5 12.7 239.5 12.7 239.5 12.7 239.4 12.7 239.4 12.7 239.4 12.7 239.4 12.6 239.4 12.6 239.4 12.6 239.4 12.6 239.4 12.6 239.4 12.6 239.4 12.6 239.4 12.6 239.4 12.6 239.4 12.6 239.4 12.6 239.4 12.6 239.4 12.6 239.4 12.6 239.4 12.6 239.4 12.6 239.4 12.6 239.4 12.6 239.4 12.6 239.4 12.6 239.4 12.6 239.4 12.6 239.4 12.6 239.4 12.6 239.4 12.6 239.4 12.6 239.4 12.6 239.4 12.6 239.4 12.6 239.4 12.6 239.4 12.6 239.4 12.6 239.3 12.6 239.3 12.6 239.3 12.6 239.3 12.6 239.3 12.6 239.3 12.6 239.3 12.6 239.3 12.6 239.3 12.5 239.3 12.5 239.3 12.5 239.3 12.5 239.3 12.5 239.3 12.5 239.3 12.5 239.3 12.5 239.3 12.5 239.3 12.5 239.3 12.5 239.3 12.5 239.3 12.5 239.3 12.5 239.3 12.5 239.3 12.5 239.3 12.5 239.3 12.5 239.3 12.5 239.3 12.5 239.3 12.5 239.3 12.5 239.2 12.5 239.2 12.5 239.2 12.5 239.2 12.5 239.2 12.5 239.2 12.5 239.2 12.5 239.2 12.5 239.2 12.5 239.2 12.5 239.2 12.5 239.2 12.5 239.1 12.5 239.1 12.5 239.1 12.5 239.1 12.5 239.1 12.5 239.1 12.5 239.1 12.5 239.1 12.5 239.1 12.5 239.1 12.5 239.1 12.5 239 12.5 239 12.5 239 12.5 239 12.5 239 12.5 239 12.5 238.9 12.5 238.9 12.5 238.9 12.5 238.9 12.5 238.9 12.5 238.9 12.5 238.9 12.5 238.9 12.5 238.9 12.5 238.9 12.5 238.9 12.5 238.8 12.5 238.8 12.5 238.8 12.5 238.8 12.5 238.8 12.5 238.8 12.5 238.8 12.5 238.8 12.5 238.8 12.5 238.8 12.5 238.8 12.5 238.8 12.5 238.8 12.5 238.8 12.5 238.8 12.5 238.8 12.5 238.8 12.5 238.8 12.5 238.7 12.5 238.7 12.5 238.7 12.5 238.7 12.5 238.7 12.5 238.7 12.5 238.7 12.5 238.7 12.5 238.7 12.5 238.7 12.5 238.7 12.5 238.7 12.6 238.7 12.6 238.7 12.6 238.7 12.6 238.7 12.6 238.7 12.6 238.7 12.6 238.7 12.6 238.7 12.6 238.7 12.6 238.7 12.6 238.7 12.6 238.7 12.6 238.7 12.6 238.7 12.6 238.7 12.6 238.7 12.6 238.7 12.6 238.7 12.6 238.7 12.6 238.7 12.6 238.6 12.6 238.6 12.6 238.6 12.6 238.6 12.6 238.6 12.6 238.6 12.6 238.6 12.6 238.6 12.6 238.6 12.6 238.6 12.6 238.6 12.6 238.6 12.6 238.6 12.6 238.6 12.6 238.6 12.6 238.6 12.6 238.6 12.6 238.6 12.6 238.6 12.6 238.6 12.7 238.6 12.7 238.6 12.7 238.6 12.7 238.6 12.7 238.6 12.7 238.6 12.7 238.6 12.7 238.6 12.7 238.6 12.7 238.6 12.7 238.6 12.7 238.6 12.7 238.5 12.7 238.5 12.7 238.5 12.8 238.5 12.8 238.5 12.8 238.5 12.8 238.5 12.8 238.5 12.8 238.5 12.8 238.5 12.8 238.5 12.8 238.5 12.8 238.5 12.8 238.5 12.9 238.5 12.9 238.5 12.9 238.5 12.9 238.5 12.9 238.5 13 238.5 13 238.5 13 238.5 13 238.5 13.1 238.4 13.1 238.4 13.1 238.4 13.2 238.4 13.2 238.4 13.3 238.4 13.4 238.4 13.5 238.4 13.8 238.4 14.1 238.3 14.8 238.3 18.8 237.4 4.1 162.3 15.8 162.3 15.9 162.3 15.9 162.3 15.9 162.3 16 162.3 16 162.3 16 162.3 16.1 162.3 16.1 162.3 16.1 162.3 16.2 162.3 16.2 162.3 16.2 162.3 16.2 162.3 16.3 162.3 16.3 162.4 16.3 162.4 16.4 162.4 16.4 162.4 16.4 162.4 16.5 162.4 16.5 162.4 16.5 162.4 16.6 162.4 16.6 162.4 16.6 162.5 16.6 162.5 16.7 162.5 16.7 162.5 16.7 162.5 16.8 162.5 16.8 162.5 16.8 162.6 16.8 162.6 16.9 162.6 16.9 162.6 16.9 162.6 16.9 162.7 17 162.7 17 162.7 17 162.7 17 162.7 17.1 162.8 17.1 162.8 17.1 162.8 17.1 162.8 17.2 162.8 17.2 162.9 17.2 162.9 17.2 162.9 17.2 162.9 17.3 163 17.3 163 17.3 163 17.3 163 17.3 163.1 17.4 163.1 17.4 163.1 17.4 163.1 17.4 163.2 17.4 163.2 17.5 163.2 17.5 163.3 53.9 229.6 71.2 225.8 84 223.2 89.1 222.2 93.6 221.4 95.6 221 97.6 220.7 99.5 220.4 101.3 220.2 103.9 219.9 106.4 219.6 108.8 219.4 111.3 219.2 113.8 219 116.3 218.8 118.9 218.7 121.7 218.6 127.4 218.5 204.5 218.4 204.5 193.3 204.1 193.3 203.7 193.3 203.2 193.3 202.8 193.3 202.4 193.3 202 193.2 201.6 193.2 201.3 193.2 200.9 193.1 200.5 193.1 200.1 193 199.7 193 199.4 192.9 199 192.9 198.7 192.8 198.3 192.7 198 192.7 197.6 192.6 197.3 192.5 197 192.4 196.7 192.3 196.3 192.3 196 192.2 195.7 192.1 195.4 192 195.3 191.9 195.1 191.8 195 191.8 194.8 191.7 194.7 191.7 194.5 191.6 194.4 191.6 194.2 191.5 194.1 191.4 194 191.4 193.8 191.3 193.7 191.2 193.5 191.2 193.4 191.1 193.5 191 193.7 191 193.8 190.9 194 190.8 194.1 190.8 194.2 190.7 194.4 190.6 194.5 190.6 194.7 190.5 194.8 190.5 195 190.4 195.1 190.4 195.3 190.3 195.4 190.2 195.7 190.1 196 190 196.3 189.9 196.7 189.8 197 189.8 197.3 189.7 197.6 189.6 198 189.5 198.3 189.4 198.7 189.4 199 189.3 199.4 189.3 199.7 189.2 200.1 189.2 200.5 189.1 200.9 189.1 201.3 189 201.6 189 202 189 202.4 188.9 202.8 188.9 203.2 188.9 203.7 188.9 204.1 188.9 204.5 188.9 204.5 184.9 202.7 176.7 202.2 176.7 201.8 176.7 201.3 176.6 200.9 176.6 200.5 176.6 200 176.6 199.6 176.5 199.2 176.5 198.8 176.5 198.4 176.4 198 176.4 197.6 176.3 197.3 176.3 196.9 176.2 196.5 176.2 196.2 176.1 195.8 176 195.5 175.9 195.1 175.9 194.8 175.8 194.4 175.7 194.1 175.6 193.8 175.5 193.5 175.4 193.3 175.4 193.2 175.3 193 175.2 192.9 175.2 192.7 175.1 192.6 175.1 192.4 175 192.3 175 192.1 174.9 192 174.8 191.9 174.8 191.7 174.7 191.6 174.7 191.4 174.6 191.3 174.5 191.2 174.5 191.3 174.4 191.4 174.3 191.6 174.3 191.7 174.2 191.8 174.1 192 174.1 192.1 174 192.2 174 192.4 173.9 192.5 173.8 192.8 173.7 193.1 173.6 193.4 173.5 193.7 173.4 194 173.3 194.3 173.2 194.6 173.2 194.9 173.1 195.2 173 195.5 172.9 195.9 172.9 196.2 172.8 196.5 172.7 196.9 172.7 197.2 172.6 197.5 172.6 197.9 172.5 198.3 172.5 198.6 172.4 199 172.4 199.3 172.4 199.7 172.3 200.1 172.3 200.5 172.3 200.9 172.3 201.3 172.3 201.7 172.2 194.9 142 194.5 142 194.1 142 193.6 142 193.2 142 192.8 142 192.4 141.9 192 141.9 191.6 141.9 191.3 141.8 190.9 141.8 190.5 141.7 190.1 141.7 189.8 141.6 189.4 141.6 189.1 141.5 188.7 141.4 188.4 141.4 188 141.3 187.7 141.2 187.4 141.1 187.1 141 186.7 140.9 186.4 140.8 186.1 140.7 185.8 140.6 185.7 140.6 185.5 140.5 185.4 140.5 185.3 140.4 185.1 140.4 185 140.3 184.8 140.3 184.7 140.2 184.6 140.1 184.4 140.1 184.3 140 184.2 140 184 139.9 183.9 139.8 184 139.8 184.2 139.7 184.3 139.6 184.4 139.6 184.5 139.5 184.7 139.5 184.9 139.3 185.2 139.2 185.5 139.1 185.7 139 186 138.9 186.3 138.8 186.6 138.7 186.9 138.7 187.2 138.6 187.5 138.5 187.8 138.4 188.1 138.3 188.4 138.3 188.7 138.2 189 138.1 189.3 138.1 189.7 138 190 138 190.3 137.9 190.7 137.9 191 137.8 191.4 137.8 191.7 137.8 192.1 137.7 192.4 137.7 192.8 137.7 193.2 137.7 193.6 137.6 193.9 137.6 175.6 55.7 175.6 55.6 175.6 55.5 175.6 55.4 175.5 55.3 175.5 55.3 175.5 55.3 175.5 55.2 175.5 55.2 175.5 55.1 175.5 55.1 175.5 55.1 175.4 55 175.4 55 175.4 54.9 175.4 54.9 175.4 54.9 175.4 54.8 175.4 54.8 175.3 54.8 175.3 54.7 175.3 54.7 175.3 54.7 175.3 54.6 175.3 54.6 175.2 54.6 175.2 54.5 175.2 54.5 175.2 54.5 175.2 54.5 175.2 54.4 175.1 54.4 175.1 54.4 175.1 54.3 175.1 54.3 175.1 54.3 175.1 54.3 175 54.2 175 54.2 175 54.2 175 54.2 175 54.1 174.9 54.1 174.9 54.1 174.9 54.1 174.9 54.1 174.9 54 174.8 54 174.8 54 174.8 54 174.8 54 174.8 53.9 174.7 53.9 174.7 53.9 174.7 53.9 174.7 53.9 174.7 53.8 174.6 53.8 174.6 53.8 174.6 53.8 174.6 53.8 174.6 53.8 174.5 53.8 174.5 53.7 174.5 53.7 174.5 53.7 174.4 53.7 174.4 53.7 174.4 53.7 174.4 53.7 174.4 53.6 174.3 53.6 174.3 53.6 174.3 53.6 174.3 53.6 174.2 53.6 174.2 53.6 174.2 53.6 174.2 53.6 174.2 53.6 174.1 53.5 174.1 53.5 174.1 53.5 174.1 53.5 174 53.5 174 53.5 174 53.5 174 53.5 174 53.5 173.9 53.5 173.9 53.5 173.8 53.4 173.8 53.4 173.7 53.4 173.7 53.4 173.7 53.4 173.6 53.4 173.6 53.4 173.5 53.4 173.5 53.4 173.4 53.4 173.4 53.4 173.3 53.3 173.2 53.3 172.9 53.3 172.8 53.3 172.6 53.3 172.5 53.3 172.3 53.3 172.1 53.3 171.8 53.2 171.6 53.2 171.3 53.2 170.5 53.2 170.4 53.2 170.4 53.2 170.3 53.2 170.3 53.2 170.2 53.2 170.2 53.2 170.2 53.2 170.1 53.2 170.1 53.2 170.1 53.2 170 53.2 170 53.2 170 53.2 170 53.2 169.9 53.2 169.9 53.2 169.9 53.2 169.9 53.2 169.9 53.2 169.9 53.2 169.8 53.2 169.8 53.2 169.8 53.1 169.8 53.1 169.8 53.1 169.8 53.1 169.7 53.1 169.7 53.1 169.7 53.1 169.7 53.1 169.7 53.1 169.7 53.1 169.6 53.1 169.6 53.1 169.6 53.1 169.6 53.1 169.6 53.1 169.6 53.1 169.5 53 169.5 53 169.5 53 169.5 53 169.5 53 169.5 53 169.5 53 169.4 53 169.4 53 169.4 53 169.4 53 169.4 52.9 169.4 52.9 169.3 52.9 169.3 52.9 169.3 52.9 169.3 52.9 169.3 52.9 169.3 52.9 169.3 52.8 169.2 52.8 169.2 52.8 169.2 52.8 169.2 52.8 169.2 52.8 169.2 52.8 169.2 52.7 169.1 52.7 169.1 52.7 169.1 52.7 169.1 52.7 169.1 52.7 169.1 52.7 169.1 52.6 169.1 52.6 169 52.6 169 52.6 169 52.6 169 52.5 169 52.5 169 52.5 169 52.5 168.9 52.5 168.9 52.4 168.9 52.4 168.9 52.4 168.9 52.4 168.9 52.3 168.9 52.3 168.9 52.3 168.8 52.3 168.8 52.3 168.8 52.2 168.8 52.2 168.8 52.2 168.8 52.2 168.8 52.1 168.8 52.1 168.8 52.1 168.7 52 186.3 52 186.5 52 186.6 52 186.7 52 186.8 52 186.9 52 187 52 187.1 52 187.2 52 187.3 52.1 187.4 52.1 187.5 52.1 187.6 52.1 187.6 52.1 187.7 52.1 187.8 52.1 187.9 52.2 188 52.2 188.1 52.2 188.2 52.2 188.3 52.2 188.3 52.3 188.4 52.3 188.5 52.3 188.6 52.3 188.7 52.4 188.8 52.4 188.8 52.4 188.8 52.4 188.9 52.4 188.9 52.5 188.9 52.5 189 52.5 189 52.5 189.1 52.5 189.1 52.5 189.1 52.6 189.2 52.6 189.2 52.6 189.2 52.6 189.3 52.6 189.3 52.6 189.3 52.7 189.4 52.7 189.4 52.7 189.4 52.7 189.5 52.7 189.5 52.8 189.5 52.8 189.6 52.8 189.6 52.8 189.6 52.8 189.7 52.9 189.7 52.9 189.7 52.9 189.8 52.9 189.8 53 189.8 53 189.8 53 189.9 53 189.9 53.1 189.9 53.1 190 53.1 190 53.1 190 53.2 190 53.2 190.1 53.2 190.1 53.2 190.1 53.3 190.2 53.3 190.2 53.3 190.2 53.3 190.2 53.4 190.3 53.4 190.3 53.4 190.3 53.5 190.3 53.5 190.4 53.5 190.4 53.5 190.4 53.6 190.4 53.6 190.5 53.6 190.5 53.7 190.5 53.7 190.5 53.7 190.5 53.8 190.6 53.8 190.6 53.8 190.6 53.8 190.6 53.9 190.7 53.9 190.7 53.9 190.7 54 190.7 54 190.7 54 190.7 54.1 190.8 54.1 190.8 54.1 190.8 54.2 190.8 54.2 190.8 54.3 190.9 54.3 190.9 54.3"/>
    </g>
  </g>
</svg>