<?xml version="1.0" encoding="UTF-8"?>
<svg id="Layer_1" data-name="Layer 1" xmlns="http://www.w3.org/2000/svg" viewBox="0 0 750 750">
  <defs>
    <style>
      .cls-1 {
        fill: none;
        stroke: #000;
        stroke-linecap: round;
        stroke-linejoin: round;
        stroke-width: 3.5px;
      }
    </style>
  </defs>
  <!-- Simplified path that preserves the general shape but with far fewer points -->
  <path class="cls-1" d="M 375,340 
    l -105,-150 c -10,-14 -25,-25 -40,-25 c -5,0 -10,1 -15,3 c 5,2 10,5 12,10 c 40,80 50,120 55,140 
    c -5,2 -10,5 -10,10 c 5,2 10,3 15,4 c 5,10 10,25 15,40 c -5,1 -10,3 -10,5 c 5,2 10,3 15,4 
    c 2,20 2,40 2,60 c -20,1 -40,2 -60,4 c -20,0 -60,0 -100,2 c -20,1 -40,2 -60,6 l -50,10 c -5,0 -10,-2 -15,-5
    l -80,-100 c -5,-5 -20,-15 -30,-20 l -20,-5 l 50,140 c -10,2 -30,5 -40,10 c 5,2 10,3 15,3 c 10,1 20,1 30,2 
    c 10,3 30,6 40,10 l -50,140 l 20,-5 c 10,-2 25,-10 30,-20 l 80,-100 c 5,-3 10,-5 15,-5 l 50,10 
    c 20,4 40,5 60,6 c 40,1 80,1 100,2 c 20,1 40,2 60,4 c 0,20 0,40 -2,60 c -5,1 -10,2 -15,4 c 5,2 10,4 10,5 
    c -5,15 -10,30 -15,40 c -5,1 -10,2 -15,4 c 5,5 10,8 10,10 c -40,80 -50,120 -55,140 c -5,5 -15,15 -25,15 
    c -5,0 -10,1 -15,3 c 5,2 10,2 15,2 c 15,0 30,-5 40,-15 c 10,-10 15,-20 20,-30 c 30,-40 80,-120 105,-150 
    h 10 c 0,0 5,10 5,10 c 20,2 40,4 60,4 c 20,0 40,-5 60,-10 c 5,-10 5,-40 0,-50 c -5,-2 -10,-3 -15,-4 
    c -20,-5 -40,-5 -60,-3 c 30,-40 50,-70 60,-80 c 10,-10 20,-12 30,-12 h 180 c 5,0 10,0 20,0 c 20,-1 60,-10 90,-20 
    c 20,-5 40,-10 60,-20 c 10,-5 20,-10 20,-20 c -10,-10 -30,-15 -40,-20 c -20,-5 -40,-10 -60,-15 
    c -30,-5 -60,-10 -90,-15 c -10,-1 -20,-2 -40,-2 h -180 z" />
</svg>