<?xml version="1.0" encoding="UTF-8"?>
<svg id="Layer_1"
    xmlns="http://www.w3.org/2000/svg" version="1.1"
    xmlns:x="http://ns.adobe.com/Extensibility/1.0/" viewBox="0 0 750 750">
    <!-- Generator: Adobe Illustrator 29.5.1, SVG Export Plug-In . SVG Version: 2.1.0 Build 141)  -->
    <line x1="750" y1="750" y2="750" fill="#fff"/>
    <line x2="750" fill="#fff"/>
    <path d="M476.3,340c-13.7-1.7-31.5-35.3-41.4-45.6,12.3,1.7,26.3,3.5,37.8-1.7.8-5.4,2.4-22.5-1-26.2-14.8-4.5-30.6-2.3-45.5.7-1.1,0-.5,3.1-.7,3.8l-2.6.7v2.5h-3c-21.1-28-90.5-132.1-112.6-159.4-7.1-8.4-20.2-13.6-30.5-10.7,5.2,1.5,11.5,1.9,13.9,7.9,13.5,27.7,36,84.7,48,112.9-10.4,1.6-4.5,3.4,1.8,4.4,3.6,8.8,9.1,22.4,12.3,31.2-10.8,1.7-5.3,3.4,1.6,4.5,4.1,10.9,6.2,22.4,6.7,34-10.3,1.5-9.1,3.2.3,4.7.5,10.3.7,22.9.8,33.2-10.2.3-20.9,0-30.6,3.2-36.3.7-85.1-2.7-120,5.6l-25.2,5.9c-2.9-.1-5.7-1.5-7.6-3.7-2.5-2.7-39.1-52.1-41.1-52.7-5.9-6.1-16.9-7.1-24.8-8.7l25.6,71.5c-4.2,1-8.6,2.3-12.7,3.8v1c-14.7.4-14.5,2.1,0,2.5v1c4.1,1.5,8.5,2.8,12.7,3.8l-25.6,71.5c8.2-1.7,18.7-2.6,24.8-8.7,2.1-.8,38.3-49.6,40.7-52.3,1.9-2.5,4.9-4,8-4.1l25.2,5.9c34.7,8.2,84,4.9,120,5.6,9.7,3.1,20.5,2.9,30.6,3.2,0,10.4-.2,22.9-.8,33.2-9.4,1.5-10.6,3.2-.3,4.7-.6,11.6-2.6,23.1-6.7,34-6.9,1.1-12.4,2.8-1.6,4.5-3.2,8.8-8.7,22.5-12.3,31.2-6.4,1-12.2,2.8-1.8,4.4-11.7,27.6-34.5,85-47.7,112.3-2.3,5.9-8.2,7.4-13.9,8.2-.9.5.3,1,.9.9,11.3,1,22.6-2.9,29.8-11.8,21.7-27.1,91.3-131.2,112.2-158.9h2.9v2.5c0,0,2.7.7,2.7.7.3.6-.4,3.7.7,3.8,14.9,3,30.8,5.3,45.6.7,3.4-4.1,1.8-20.5,1-26.2-11.5-5.3-25.5-3.4-37.8-1.7,7-9.3,21.4-28,28.6-37.3,3-3.5,6.6-7.2,11.3-8.2,32.8-1.5,104.5,3.6,135.7-5.8,7.8-2.3,53.9-12.1,35.2-23.9-44.3-25.2-120.2-16.8-169.3-18.1Z" fill="none" stroke="#000" stroke-linecap="round" stroke-linejoin="round" stroke-width="10"/>
</svg>