<?xml version="1.0" encoding="UTF-8"?>
<svg id="Layer_1" data-name="Layer 1"
    xmlns="http://www.w3.org/2000/svg" viewBox="0 0 750 750">
    <defs>
        <style>
      .cls-1 {
        fill: none;
        stroke: #000;
        stroke-linecap: round;
        stroke-linejoin: round;
        stroke-width: 3.5px;
      }
        </style>
    </defs>
    <path class="cls-1" d="M476.27,340c-13.66-1.67-31.49-35.28-41.43-45.63,12.07,1.97,24.7,2.72,36.55-.85,3.43-2.3,1.4-8.44,2.12-12.12-.87-4.66,2.38-15.02-4.17-15.62-14.19-3.68-29.1-1.52-43.25,1.34-1.1.07-.49,3.15-.71,3.75l-2.59.66-.08,2.49h-2.92c-21.14-27.98-90.54-132.08-112.6-159.36-7.1-8.43-20.21-13.62-30.55-10.66,5.16,1.51,11.5,1.95,13.86,7.94,13.52,27.7,36.01,84.73,48.01,112.87-10.68,1.74-4.52,3.35,1.8,4.39,3.56,8.79,9.06,22.42,12.26,31.23-11.06,1.76-5.31,3.36,1.6,4.49,4.13,10.87,6.17,22.41,6.73,34-10.44,1.52-9.16,3.14.28,4.66.54,10.33.73,22.85.76,33.22-10.15.32-20.91.05-30.65,3.2-36.33.65-85.09-2.68-120.01,5.56,0,0-25.18,5.92-25.18,5.92-3.13-.1-6.08-1.68-7.98-4.15-2.44-2.79-38.5-51.23-40.67-52.25-5.92-6.12-16.89-7.09-24.76-8.73l25.56,71.52c-4.24,1.02-8.62,2.31-12.72,3.77v.96c-14.66.44-14.51,2.06,0,2.49v.96c4.11,1.46,8.49,2.75,12.72,3.77l-25.56,71.52c8.16-1.71,18.74-2.59,24.76-8.74,2.08-.8,38.3-49.62,40.67-52.25,1.91-2.47,4.85-4.05,7.98-4.15,0,0,25.18,5.92,25.18,5.92,34.68,8.22,84,4.91,120.01,5.56,9.74,3.15,20.49,2.88,30.64,3.2-.04,10.38-.23,22.88-.76,33.22-9.5,1.53-10.66,3.15-.28,4.66-.56,11.59-2.6,23.13-6.73,34-2.51.63-6.47.55-8.01,2.66,1.88,1.14,4.27,1.37,6.4,1.83-3.18,8.77-8.72,22.48-12.26,31.23-6.36,1.05-12.45,2.67-1.8,4.39-11.73,27.61-34.52,85.01-47.71,112.34-2.33,5.87-8.24,7.36-13.86,8.18-.87.52.31.98.86.92,11.25,1.04,22.63-2.88,29.84-11.8,21.68-27.08,91.3-131.2,112.15-158.86h2.92l.08,2.49,2.59.66c.32.59-.44,3.69.71,3.75,14.15,2.86,29.05,5.02,43.25,1.34,6.57-.6,3.3-10.95,4.18-15.62-.71-3.69,1.3-9.81-2.12-12.12-11.85-3.57-24.48-2.82-36.55-.85,6.98-9.31,21.36-28.05,28.55-37.26,3.02-3.52,6.57-7.2,11.27-8.21,32.83-1.52,104.5,3.58,135.7-5.83,7.78-2.27,53.94-12.09,35.19-23.87-44.27-25.21-120.21-16.79-169.28-18.12Z"/>
</svg>