<?xml version="1.0" encoding="UTF-8"?>
<svg id="svg2"
    xmlns="http://www.w3.org/2000/svg" viewBox="0 0 3150.95 679.47">
    <path id="path3194" d="M902.67,2.5l52.56,274.28h-229.84v51.44h-25.72l-5.81,40h-171.32l8.56,62.84h-154.28v-40H2.55c-2.47,49.21,88.61,82.8,122.84,80,0,0,0,45.72,0,45.72-33.68,31.48-53.66,107.59,2.88,160,0,0,2568.56,0,2568.56,0,469.78,3.32,432.42-34.87,451.44-320l-474.31,14.28v37.16h-185.69l.34-27.5-31.47.03.38-103.97h-130.56L2274.39,2.5h-135.72l52.56,274.28h-278.28L1860.39,2.5h-135.72l52.56,274.28h-270.28L1454.39,2.5h-135.72l52.56,274.28h-280.28L1038.39,2.5h-135.72Z" style="fill: none; fill-rule: evenodd; stroke: #000; stroke-miterlimit: 9; stroke-width: 40px;"/>
</svg>